<svg xmlns="http://www.w3.org/2000/svg" viewBox="0 0 32 32"><g fill="none"><path fill="url(#f856id0)" d="m25.85 12.449l-2.3-3.16c.63-.55 1.02-1.35 1.02-2.25a2.996 2.996 0 0 0-5.54-1.59c-.94-.36-1.96-.55-3.03-.55c-1.07 0-2.09.2-3.03.55a2.996 2.996 0 1 0-4.52 3.84l-2.3 3.16A6.042 6.042 0 0 0 5 15.999c0 3.34 2.7 6.04 6.04 6.04h9.92c3.34 0 6.04-2.7 6.04-6.04c0-1.27-.4-2.52-1.15-3.55"/><path fill="url(#f856id1)" d="m25.85 12.449l-2.3-3.16c.63-.55 1.02-1.35 1.02-2.25a2.996 2.996 0 0 0-5.54-1.59c-.94-.36-1.96-.55-3.03-.55c-1.07 0-2.09.2-3.03.55a2.996 2.996 0 1 0-4.52 3.84l-2.3 3.16A6.042 6.042 0 0 0 5 15.999c0 3.34 2.7 6.04 6.04 6.04h9.92c3.34 0 6.04-2.7 6.04-6.04c0-1.27-.4-2.52-1.15-3.55"/><path fill="url(#f856id2)" fill-opacity="0.4" d="m25.85 12.449l-2.3-3.16c.63-.55 1.02-1.35 1.02-2.25a2.996 2.996 0 0 0-5.54-1.59c-.94-.36-1.96-.55-3.03-.55c-1.07 0-2.09.2-3.03.55a2.996 2.996 0 1 0-4.52 3.84l-2.3 3.16A6.042 6.042 0 0 0 5 15.999c0 3.34 2.7 6.04 6.04 6.04h9.92c3.34 0 6.04-2.7 6.04-6.04c0-1.27-.4-2.52-1.15-3.55"/><path fill="url(#f856id3)" d="m25.85 12.449l-2.3-3.16c.63-.55 1.02-1.35 1.02-2.25a2.996 2.996 0 0 0-5.54-1.59c-.94-.36-1.96-.55-3.03-.55c-1.07 0-2.09.2-3.03.55a2.996 2.996 0 1 0-4.52 3.84l-2.3 3.16A6.042 6.042 0 0 0 5 15.999c0 3.34 2.7 6.04 6.04 6.04h9.92c3.34 0 6.04-2.7 6.04-6.04c0-1.27-.4-2.52-1.15-3.55"/><path fill="url(#f856id4)" d="m25.85 12.449l-2.3-3.16c.63-.55 1.02-1.35 1.02-2.25a2.996 2.996 0 0 0-5.54-1.59c-.94-.36-1.96-.55-3.03-.55c-1.07 0-2.09.2-3.03.55a2.996 2.996 0 1 0-4.52 3.84l-2.3 3.16A6.042 6.042 0 0 0 5 15.999c0 3.34 2.7 6.04 6.04 6.04h9.92c3.34 0 6.04-2.7 6.04-6.04c0-1.27-.4-2.52-1.15-3.55"/><path fill="url(#f856id5)" d="m25.85 12.449l-2.3-3.16c.63-.55 1.02-1.35 1.02-2.25a2.996 2.996 0 0 0-5.54-1.59c-.94-.36-1.96-.55-3.03-.55c-1.07 0-2.09.2-3.03.55a2.996 2.996 0 1 0-4.52 3.84l-2.3 3.16A6.042 6.042 0 0 0 5 15.999c0 3.34 2.7 6.04 6.04 6.04h9.92c3.34 0 6.04-2.7 6.04-6.04c0-1.27-.4-2.52-1.15-3.55"/><path fill="url(#f856id6)" d="m23.562 9.278l-.007-.01c-1.006-1.4-2.167-3.014-4.715-3.883v-.006c.064.022.127.046.19.07a2.996 2.996 0 0 1 5.54 1.59c0 .894-.385 1.69-1.008 2.24"/><path fill="url(#f856id7)" d="m23.562 9.278l-.007-.01c-1.006-1.4-2.167-3.014-4.715-3.883v-.006c.064.022.127.046.19.07a2.996 2.996 0 0 1 5.54 1.59c0 .894-.385 1.69-1.008 2.24"/><path fill="url(#f856id8)" d="m8.434 9.278l.007-.01c1.006-1.4 2.167-3.014 4.715-3.883v-.006a8.149 8.149 0 0 0-.19.07a2.996 2.996 0 0 0-5.54 1.59c0 .894.385 1.69 1.008 2.24"/><path fill="url(#f856id9)" d="M9.04 8.469c.09-.13.18-.25.28-.37v-.01c.74-.92 1.67-1.68 2.72-2.23c-.36-.5-.95-.82-1.61-.82c-1.1 0-2 .9-2 2c0 .56.23 1.07.61 1.43"/><path fill="url(#f856ido)" d="M9.04 8.469c.09-.13.18-.25.28-.37v-.01c.74-.92 1.67-1.68 2.72-2.23c-.36-.5-.95-.82-1.61-.82c-1.1 0-2 .9-2 2c0 .56.23 1.07.61 1.43"/><path fill="url(#f856ida)" d="M9.04 8.469c.09-.13.18-.25.28-.37v-.01c.74-.92 1.67-1.68 2.72-2.23c-.36-.5-.95-.82-1.61-.82c-1.1 0-2 .9-2 2c0 .56.23 1.07.61 1.43"/><path fill="url(#f856idb)" d="M22.68 8.099c.1.13.2.25.29.38c.37-.36.61-.87.61-1.43c0-1.1-.9-2-2-2c-.66 0-1.25.32-1.62.82a8.5 8.5 0 0 1 2.72 2.23"/><path fill="url(#f856idp)" d="m28.66 12.369l.75.37c.27.14.59-.06.59-.36v-3.93a3.415 3.415 0 0 0-3.41-3.41H26l.59-1.77c.2-.6-.25-1.23-.89-1.23H19c-.65 0-1.28.21-1.8.6a3.03 3.03 0 0 0-1.2 2.26h-.01c-.04-.89-.48-1.72-1.2-2.25c-.51-.4-1.14-.61-1.79-.61H6.3c-.64 0-1.09.63-.89 1.23L6 5.039h-.59A3.415 3.415 0 0 0 2 8.449v3.93c0 .3.32.5.59.36l.75-.37c.28-.14.58-.01.65.29c.05.21-.05.41-.24.5l-1 .5c-.46.23-.75.7-.75 1.22v6.45c0 2.79 1.85 5.24 4.53 6.01l8.88 2.54c.38.11.79.11 1.18 0l8.88-2.54a6.255 6.255 0 0 0 4.53-6.01v-6.45c0-.51-.29-.98-.75-1.21l-1-.5a.463.463 0 0 1-.24-.5a.44.44 0 0 1 .65-.3M27 15.999c0 3.34-2.7 6.04-6.04 6.04h-9.92c-3.34 0-6.04-2.7-6.04-6.04c0-1.28.4-2.52 1.15-3.55l2.3-3.16a2.987 2.987 0 0 1-1.02-2.36c.06-1.6 1.39-2.89 2.99-2.89c1.07 0 2.02.56 2.55 1.41a4.347 4.347 0 0 0 6.06 0a2.99 2.99 0 0 1 2.55-1.41c1.6 0 2.94 1.29 2.99 2.89c.03.94-.37 1.79-1.02 2.36l2.3 3.16a6.042 6.042 0 0 1 1.15 3.55"/><path fill="url(#f856idq)" d="m28.66 12.369l.75.37c.27.14.59-.06.59-.36v-3.93a3.415 3.415 0 0 0-3.41-3.41H26l.59-1.77c.2-.6-.25-1.23-.89-1.23H19c-.65 0-1.28.21-1.8.6a3.03 3.03 0 0 0-1.2 2.26h-.01c-.04-.89-.48-1.72-1.2-2.25c-.51-.4-1.14-.61-1.79-.61H6.3c-.64 0-1.09.63-.89 1.23L6 5.039h-.59A3.415 3.415 0 0 0 2 8.449v3.93c0 .3.32.5.59.36l.75-.37c.28-.14.58-.01.65.29c.05.21-.05.41-.24.5l-1 .5c-.46.23-.75.7-.75 1.22v6.45c0 2.79 1.85 5.24 4.53 6.01l8.88 2.54c.38.11.79.11 1.18 0l8.88-2.54a6.255 6.255 0 0 0 4.53-6.01v-6.45c0-.51-.29-.98-.75-1.21l-1-.5a.463.463 0 0 1-.24-.5a.44.44 0 0 1 .65-.3M27 15.999c0 3.34-2.7 6.04-6.04 6.04h-9.92c-3.34 0-6.04-2.7-6.04-6.04c0-1.28.4-2.52 1.15-3.55l2.3-3.16a2.987 2.987 0 0 1-1.02-2.36c.06-1.6 1.39-2.89 2.99-2.89c1.07 0 2.02.56 2.55 1.41a4.347 4.347 0 0 0 6.06 0a2.99 2.99 0 0 1 2.55-1.41c1.6 0 2.94 1.29 2.99 2.89c.03.94-.37 1.79-1.02 2.36l2.3 3.16a6.042 6.042 0 0 1 1.15 3.55"/><path fill="url(#f856idr)" d="m28.66 12.369l.75.37c.27.14.59-.06.59-.36v-3.93a3.415 3.415 0 0 0-3.41-3.41H26l.59-1.77c.2-.6-.25-1.23-.89-1.23H19c-.65 0-1.28.21-1.8.6a3.03 3.03 0 0 0-1.2 2.26h-.01c-.04-.89-.48-1.72-1.2-2.25c-.51-.4-1.14-.61-1.79-.61H6.3c-.64 0-1.09.63-.89 1.23L6 5.039h-.59A3.415 3.415 0 0 0 2 8.449v3.93c0 .3.32.5.59.36l.75-.37c.28-.14.58-.01.65.29c.05.21-.05.41-.24.5l-1 .5c-.46.23-.75.7-.75 1.22v6.45c0 2.79 1.85 5.24 4.53 6.01l8.88 2.54c.38.11.79.11 1.18 0l8.88-2.54a6.255 6.255 0 0 0 4.53-6.01v-6.45c0-.51-.29-.98-.75-1.21l-1-.5a.463.463 0 0 1-.24-.5a.44.44 0 0 1 .65-.3M27 15.999c0 3.34-2.7 6.04-6.04 6.04h-9.92c-3.34 0-6.04-2.7-6.04-6.04c0-1.28.4-2.52 1.15-3.55l2.3-3.16a2.987 2.987 0 0 1-1.02-2.36c.06-1.6 1.39-2.89 2.99-2.89c1.07 0 2.02.56 2.55 1.41a4.347 4.347 0 0 0 6.06 0a2.99 2.99 0 0 1 2.55-1.41c1.6 0 2.94 1.29 2.99 2.89c.03.94-.37 1.79-1.02 2.36l2.3 3.16a6.042 6.042 0 0 1 1.15 3.55"/><path fill="url(#f856idc)" d="m28.66 12.369l.75.37c.27.14.59-.06.59-.36v-3.93a3.415 3.415 0 0 0-3.41-3.41H26l.59-1.77c.2-.6-.25-1.23-.89-1.23H19c-.65 0-1.28.21-1.8.6a3.03 3.03 0 0 0-1.2 2.26h-.01c-.04-.89-.48-1.72-1.2-2.25c-.51-.4-1.14-.61-1.79-.61H6.3c-.64 0-1.09.63-.89 1.23L6 5.039h-.59A3.415 3.415 0 0 0 2 8.449v3.93c0 .3.32.5.59.36l.75-.37c.28-.14.58-.01.65.29c.05.21-.05.41-.24.5l-1 .5c-.46.23-.75.7-.75 1.22v6.45c0 2.79 1.85 5.24 4.53 6.01l8.88 2.54c.38.11.79.11 1.18 0l8.88-2.54a6.255 6.255 0 0 0 4.53-6.01v-6.45c0-.51-.29-.98-.75-1.21l-1-.5a.463.463 0 0 1-.24-.5a.44.44 0 0 1 .65-.3M27 15.999c0 3.34-2.7 6.04-6.04 6.04h-9.92c-3.34 0-6.04-2.7-6.04-6.04c0-1.28.4-2.52 1.15-3.55l2.3-3.16a2.987 2.987 0 0 1-1.02-2.36c.06-1.6 1.39-2.89 2.99-2.89c1.07 0 2.02.56 2.55 1.41a4.347 4.347 0 0 0 6.06 0a2.99 2.99 0 0 1 2.55-1.41c1.6 0 2.94 1.29 2.99 2.89c.03.94-.37 1.79-1.02 2.36l2.3 3.16a6.042 6.042 0 0 1 1.15 3.55"/><path fill="url(#f856idd)" d="m28.66 12.369l.75.37c.27.14.59-.06.59-.36v-3.93a3.415 3.415 0 0 0-3.41-3.41H26l.59-1.77c.2-.6-.25-1.23-.89-1.23H19c-.65 0-1.28.21-1.8.6a3.03 3.03 0 0 0-1.2 2.26h-.01c-.04-.89-.48-1.72-1.2-2.25c-.51-.4-1.14-.61-1.79-.61H6.3c-.64 0-1.09.63-.89 1.23L6 5.039h-.59A3.415 3.415 0 0 0 2 8.449v3.93c0 .3.32.5.59.36l.75-.37c.28-.14.58-.01.65.29c.05.21-.05.41-.24.5l-1 .5c-.46.23-.75.7-.75 1.22v6.45c0 2.79 1.85 5.24 4.53 6.01l8.88 2.54c.38.11.79.11 1.18 0l8.88-2.54a6.255 6.255 0 0 0 4.53-6.01v-6.45c0-.51-.29-.98-.75-1.21l-1-.5a.463.463 0 0 1-.24-.5a.44.44 0 0 1 .65-.3M27 15.999c0 3.34-2.7 6.04-6.04 6.04h-9.92c-3.34 0-6.04-2.7-6.04-6.04c0-1.28.4-2.52 1.15-3.55l2.3-3.16a2.987 2.987 0 0 1-1.02-2.36c.06-1.6 1.39-2.89 2.99-2.89c1.07 0 2.02.56 2.55 1.41a4.347 4.347 0 0 0 6.06 0a2.99 2.99 0 0 1 2.55-1.41c1.6 0 2.94 1.29 2.99 2.89c.03.94-.37 1.79-1.02 2.36l2.3 3.16a6.042 6.042 0 0 1 1.15 3.55"/><path fill="url(#f856ids)" d="m28.66 12.369l.75.37c.27.14.59-.06.59-.36v-3.93a3.415 3.415 0 0 0-3.41-3.41H26l.59-1.77c.2-.6-.25-1.23-.89-1.23H19c-.65 0-1.28.21-1.8.6a3.03 3.03 0 0 0-1.2 2.26h-.01c-.04-.89-.48-1.72-1.2-2.25c-.51-.4-1.14-.61-1.79-.61H6.3c-.64 0-1.09.63-.89 1.23L6 5.039h-.59A3.415 3.415 0 0 0 2 8.449v3.93c0 .3.32.5.59.36l.75-.37c.28-.14.58-.01.65.29c.05.21-.05.41-.24.5l-1 .5c-.46.23-.75.7-.75 1.22v6.45c0 2.79 1.85 5.24 4.53 6.01l8.88 2.54c.38.11.79.11 1.18 0l8.88-2.54a6.255 6.255 0 0 0 4.53-6.01v-6.45c0-.51-.29-.98-.75-1.21l-1-.5a.463.463 0 0 1-.24-.5a.44.44 0 0 1 .65-.3M27 15.999c0 3.34-2.7 6.04-6.04 6.04h-9.92c-3.34 0-6.04-2.7-6.04-6.04c0-1.28.4-2.52 1.15-3.55l2.3-3.16a2.987 2.987 0 0 1-1.02-2.36c.06-1.6 1.39-2.89 2.99-2.89c1.07 0 2.02.56 2.55 1.41a4.347 4.347 0 0 0 6.06 0a2.99 2.99 0 0 1 2.55-1.41c1.6 0 2.94 1.29 2.99 2.89c.03.94-.37 1.79-1.02 2.36l2.3 3.16a6.042 6.042 0 0 1 1.15 3.55"/><path fill="url(#f856ide)" d="m28.66 12.369l.75.37c.27.14.59-.06.59-.36v-3.93a3.415 3.415 0 0 0-3.41-3.41H26l.59-1.77c.2-.6-.25-1.23-.89-1.23H19c-.65 0-1.28.21-1.8.6a3.03 3.03 0 0 0-1.2 2.26h-.01c-.04-.89-.48-1.72-1.2-2.25c-.51-.4-1.14-.61-1.79-.61H6.3c-.64 0-1.09.63-.89 1.23L6 5.039h-.59A3.415 3.415 0 0 0 2 8.449v3.93c0 .3.32.5.59.36l.75-.37c.28-.14.58-.01.65.29c.05.21-.05.41-.24.5l-1 .5c-.46.23-.75.7-.75 1.22v6.45c0 2.79 1.85 5.24 4.53 6.01l8.88 2.54c.38.11.79.11 1.18 0l8.88-2.54a6.255 6.255 0 0 0 4.53-6.01v-6.45c0-.51-.29-.98-.75-1.21l-1-.5a.463.463 0 0 1-.24-.5a.44.44 0 0 1 .65-.3M27 15.999c0 3.34-2.7 6.04-6.04 6.04h-9.92c-3.34 0-6.04-2.7-6.04-6.04c0-1.28.4-2.52 1.15-3.55l2.3-3.16a2.987 2.987 0 0 1-1.02-2.36c.06-1.6 1.39-2.89 2.99-2.89c1.07 0 2.02.56 2.55 1.41a4.347 4.347 0 0 0 6.06 0a2.99 2.99 0 0 1 2.55-1.41c1.6 0 2.94 1.29 2.99 2.89c.03.94-.37 1.79-1.02 2.36l2.3 3.16a6.042 6.042 0 0 1 1.15 3.55"/><path fill="url(#f856idf)" d="m28.66 12.369l.75.37c.27.14.59-.06.59-.36v-3.93a3.415 3.415 0 0 0-3.41-3.41H26l.59-1.77c.2-.6-.25-1.23-.89-1.23H19c-.65 0-1.28.21-1.8.6a3.03 3.03 0 0 0-1.2 2.26h-.01c-.04-.89-.48-1.72-1.2-2.25c-.51-.4-1.14-.61-1.79-.61H6.3c-.64 0-1.09.63-.89 1.23L6 5.039h-.59A3.415 3.415 0 0 0 2 8.449v3.93c0 .3.32.5.59.36l.75-.37c.28-.14.58-.01.65.29c.05.21-.05.41-.24.5l-1 .5c-.46.23-.75.7-.75 1.22v6.45c0 2.79 1.85 5.24 4.53 6.01l8.88 2.54c.38.11.79.11 1.18 0l8.88-2.54a6.255 6.255 0 0 0 4.53-6.01v-6.45c0-.51-.29-.98-.75-1.21l-1-.5a.463.463 0 0 1-.24-.5a.44.44 0 0 1 .65-.3M27 15.999c0 3.34-2.7 6.04-6.04 6.04h-9.92c-3.34 0-6.04-2.7-6.04-6.04c0-1.28.4-2.52 1.15-3.55l2.3-3.16a2.987 2.987 0 0 1-1.02-2.36c.06-1.6 1.39-2.89 2.99-2.89c1.07 0 2.02.56 2.55 1.41a4.347 4.347 0 0 0 6.06 0a2.99 2.99 0 0 1 2.55-1.41c1.6 0 2.94 1.29 2.99 2.89c.03.94-.37 1.79-1.02 2.36l2.3 3.16a6.042 6.042 0 0 1 1.15 3.55"/><path fill="url(#f856idg)" d="m28.66 12.369l.75.37c.27.14.59-.06.59-.36v-3.93a3.415 3.415 0 0 0-3.41-3.41H26l.59-1.77c.2-.6-.25-1.23-.89-1.23H19c-.65 0-1.28.21-1.8.6a3.03 3.03 0 0 0-1.2 2.26h-.01c-.04-.89-.48-1.72-1.2-2.25c-.51-.4-1.14-.61-1.79-.61H6.3c-.64 0-1.09.63-.89 1.23L6 5.039h-.59A3.415 3.415 0 0 0 2 8.449v3.93c0 .3.32.5.59.36l.75-.37c.28-.14.58-.01.65.29c.05.21-.05.41-.24.5l-1 .5c-.46.23-.75.7-.75 1.22v6.45c0 2.79 1.85 5.24 4.53 6.01l8.88 2.54c.38.11.79.11 1.18 0l8.88-2.54a6.255 6.255 0 0 0 4.53-6.01v-6.45c0-.51-.29-.98-.75-1.21l-1-.5a.463.463 0 0 1-.24-.5a.44.44 0 0 1 .65-.3M27 15.999c0 3.34-2.7 6.04-6.04 6.04h-9.92c-3.34 0-6.04-2.7-6.04-6.04c0-1.28.4-2.52 1.15-3.55l2.3-3.16a2.987 2.987 0 0 1-1.02-2.36c.06-1.6 1.39-2.89 2.99-2.89c1.07 0 2.02.56 2.55 1.41a4.347 4.347 0 0 0 6.06 0a2.99 2.99 0 0 1 2.55-1.41c1.6 0 2.94 1.29 2.99 2.89c.03.94-.37 1.79-1.02 2.36l2.3 3.16a6.042 6.042 0 0 1 1.15 3.55"/><path fill="url(#f856idh)" d="M22 2.039h-3c-.65 0-1.28.21-1.8.6a3.03 3.03 0 0 0-1.2 2.26h-.01c-.04-.89-.48-1.72-1.2-2.25c-.51-.4-1.14-.61-1.79-.61H9.352v2.2a3.004 3.004 0 0 1 3.618 1.21a4.347 4.347 0 0 0 6.06 0A2.99 2.99 0 0 1 22 4.069z"/><path fill="url(#f856idt)" d="M2.532 6.623h3.984l-.519-1.584H5.41a3.415 3.415 0 0 0-2.878 1.584"/><path fill="url(#f856idu)" d="M2.532 6.623h3.984l-.519-1.584H5.41a3.415 3.415 0 0 0-2.878 1.584"/><path fill="url(#f856idv)" d="M29.464 6.623H25.48l.518-1.584h.588a3.415 3.415 0 0 1 2.878 1.584"/><path fill="url(#f856idw)" d="M29.464 6.623H25.48l.518-1.584h.588a3.415 3.415 0 0 1 2.878 1.584"/><path fill="#ffdea3" d="M16 27.039c-3.31 0-6-2.69-6-6v-1.57h12v1.57c0 3.31-2.69 6-6 6"/><path fill="url(#f856idi)" d="M16 27.039c-3.31 0-6-2.69-6-6v-1.57h12v1.57c0 3.31-2.69 6-6 6"/><path fill="url(#f856idj)" d="M16 27.039c-3.31 0-6-2.69-6-6v-1.57h12v1.57c0 3.31-2.69 6-6 6"/><path fill="url(#f856idk)" d="M16 27.039c-3.31 0-6-2.69-6-6v-1.57h12v1.57c0 3.31-2.69 6-6 6"/><path fill="url(#f856idl)" d="M16 27.039c-3.31 0-6-2.69-6-6v-1.57h12v1.57c0 3.31-2.69 6-6 6"/><g filter="url(#f856id1a)"><path fill="url(#f856idx)" d="M19.43 16.899c-.27 0-.53-.12-.71-.32l-1.99-2.3a.97.97 0 0 0-1.47 0l-1.99 2.3c-.18.21-.44.32-.71.32c-1.41 0-2.56 1.15-2.56 2.57a2.57 2.57 0 0 0 2.57 2.57h1.29c.89 0 1.68-.46 2.14-1.15c.46.69 1.25 1.15 2.14 1.15h1.29a2.57 2.57 0 1 0 0-5.14"/><path fill="url(#f856idy)" d="M19.43 16.899c-.27 0-.53-.12-.71-.32l-1.99-2.3a.97.97 0 0 0-1.47 0l-1.99 2.3c-.18.21-.44.32-.71.32c-1.41 0-2.56 1.15-2.56 2.57a2.57 2.57 0 0 0 2.57 2.57h1.29c.89 0 1.68-.46 2.14-1.15c.46.69 1.25 1.15 2.14 1.15h1.29a2.57 2.57 0 1 0 0-5.14"/><path fill="url(#f856idz)" d="M19.43 16.899c-.27 0-.53-.12-.71-.32l-1.99-2.3a.97.97 0 0 0-1.47 0l-1.99 2.3c-.18.21-.44.32-.71.32c-1.41 0-2.56 1.15-2.56 2.57a2.57 2.57 0 0 0 2.57 2.57h1.29c.89 0 1.68-.46 2.14-1.15c.46.69 1.25 1.15 2.14 1.15h1.29a2.57 2.57 0 1 0 0-5.14"/><path fill="url(#f856idm)" d="M19.43 16.899c-.27 0-.53-.12-.71-.32l-1.99-2.3a.97.97 0 0 0-1.47 0l-1.99 2.3c-.18.21-.44.32-.71.32c-1.41 0-2.56 1.15-2.56 2.57a2.57 2.57 0 0 0 2.57 2.57h1.29c.89 0 1.68-.46 2.14-1.15c.46.69 1.25 1.15 2.14 1.15h1.29a2.57 2.57 0 1 0 0-5.14"/></g><g fill="#e78d29" filter="url(#f856id1b)"><path d="M18.906 14.015a.758.758 0 1 1 1.516 0V15.5a.758.758 0 1 1-1.516 0zm-8.007 0a.758.758 0 1 1 1.515 0V15.5a.758.758 0 1 1-1.515 0z"/></g><rect width="1.516" height="3" x="19.25" y="13.039" fill="url(#f856id10)" rx=".758"/><rect width="1.516" height="3" x="19.25" y="13.039" fill="url(#f856id11)" rx=".758"/><rect width="1.516" height="3" x="11.242" y="13.039" fill="url(#f856id12)" rx=".758"/><rect width="1.516" height="3" x="11.242" y="13.039" fill="url(#f856id13)" rx=".758"/><rect width="1.516" height="3" x="11.242" y="13.039" fill="url(#f856id14)" rx=".758"/><g filter="url(#f856id1c)"><path fill="#ffedba" fill-opacity="0.75" d="M16.094 14.295v3.625l2.25-.781z"/></g><g filter="url(#f856id1d)"><path fill="url(#f856id15)" d="m13.247 18.436l1.783 1.794a.742.742 0 0 0 1.042 0l1.782-1.794a.49.49 0 0 0-.347-.836h-3.903a.49.49 0 0 0-.357.836"/></g><path fill="url(#f856id16)" d="m13.49 17.809l1.95 1.95c.31.31.82.31 1.14 0l1.95-1.95c.34-.34.1-.91-.38-.91h-4.27c-.49 0-.73.57-.39.91"/><path fill="url(#f856id17)" d="m13.49 17.809l1.95 1.95c.31.31.82.31 1.14 0l1.95-1.95c.34-.34.1-.91-.38-.91h-4.27c-.49 0-.73.57-.39.91"/><path fill="url(#f856id18)" d="m13.49 17.809l1.95 1.95c.31.31.82.31 1.14 0l1.95-1.95c.34-.34.1-.91-.38-.91h-4.27c-.49 0-.73.57-.39.91"/><path fill="url(#f856id19)" d="m13.49 17.809l1.95 1.95c.31.31.82.31 1.14 0l1.95-1.95c.34-.34.1-.91-.38-.91h-4.27c-.49 0-.73.57-.39.91"/><g filter="url(#f856id1e)"><ellipse cx="19.611" cy="19.021" fill="url(#f856idn)" rx="2.061" ry="1.742"/></g><g filter="url(#f856id1f)"><path stroke="#c49589" stroke-linecap="round" stroke-width="0.5" d="M16.797 5.967c.312-.089 1.125-.188 1.906-1.469c.79-1.297 1.985-1.406 2.375-1.406"/></g><g filter="url(#f856id1g)"><path fill="#c39589" fill-opacity="0.5" d="M28.156 14.848h.813v7.854h-.813z"/></g><g filter="url(#f856id1h)"><path fill="#c39589" fill-opacity="0.75" d="M27.472 6.679h.813v4.394h-.813z"/></g><g filter="url(#f856id1i)"><path stroke="#c49589" stroke-linecap="round" stroke-width="0.2" d="M25.828 2.951L25 5.154"/></g><defs><radialGradient id="f856id0" cx="0" cy="0" r="1" gradientTransform="matrix(0 19.5625 -19.4375 0 17.688 5.201)" gradientUnits="userSpaceOnUse"><stop stop-color="#ffcb5a"/><stop offset=".767" stop-color="#ea9231"/></radialGradient><radialGradient id="f856id1" cx="0" cy="0" r="1" gradientTransform="matrix(-7.31252 3.56245 -6.65989 -13.67054 26.125 12.639)" gradientUnits="userSpaceOnUse"><stop stop-color="#ffcb5a"/><stop offset="1" stop-color="#ffcb5a" stop-opacity="0"/></radialGradient><radialGradient id="f856id2" cx="0" cy="0" r="1" gradientTransform="matrix(4.4375 -.75 2.18382 12.92095 4 16.826)" gradientUnits="userSpaceOnUse"><stop stop-color="#ffd375"/><stop offset="1" stop-color="#ffcb5a" stop-opacity="0"/></radialGradient><radialGradient id="f856id3" cx="0" cy="0" r="1" gradientTransform="matrix(0 -6.75 8.9375 0 16 21.639)" gradientUnits="userSpaceOnUse"><stop stop-color="#df7d3c"/><stop offset="1" stop-color="#df7d3c" stop-opacity="0"/></radialGradient><radialGradient id="f856id4" cx="0" cy="0" r="1" gradientTransform="matrix(0 4.625 -5.24685 0 16 4.326)" gradientUnits="userSpaceOnUse"><stop stop-color="#df7d3c"/><stop offset="1" stop-color="#df7d3c" stop-opacity="0"/></radialGradient><radialGradient id="f856id5" cx="0" cy="0" r="1" gradientTransform="rotate(87.138 2.478 14.79)scale(11.2641 16.3049)" gradientUnits="userSpaceOnUse"><stop offset=".865" stop-color="#df7d3c" stop-opacity="0"/><stop offset="1" stop-color="#c8692a"/></radialGradient><radialGradient id="f856id6" cx="0" cy="0" r="1" gradientTransform="matrix(3.53125 -2.75 3.25808 4.18366 20.375 8.139)" gradientUnits="userSpaceOnUse"><stop stop-color="#df7d3c"/><stop offset="1" stop-color="#df7d3c" stop-opacity="0"/></radialGradient><radialGradient id="f856id7" cx="0" cy="0" r="1" gradientTransform="rotate(161.274 11.437 5.103)scale(.9734 2.03584)" gradientUnits="userSpaceOnUse"><stop stop-color="#ffc567"/><stop offset="1" stop-color="#ffc362" stop-opacity="0"/></radialGradient><radialGradient id="f856id8" cx="0" cy="0" r="1" gradientTransform="rotate(162.628 6.499 3.302)scale(3.55864 4.21612)" gradientUnits="userSpaceOnUse"><stop stop-color="#df7d3c"/><stop offset="1" stop-color="#df7d3c" stop-opacity="0"/></radialGradient><radialGradient id="f856id9" cx="0" cy="0" r="1" gradientTransform="matrix(4.5625 -.25 .26312 4.80193 7.812 6.264)" gradientUnits="userSpaceOnUse"><stop stop-color="#dc8c58"/><stop offset="1" stop-color="#cc7438"/></radialGradient><radialGradient id="f856ida" cx="0" cy="0" r="1" gradientTransform="matrix(1.46875 -.28125 .49056 2.56181 8.508 7.623)" gradientUnits="userSpaceOnUse"><stop stop-color="#dc8b54"/><stop offset="1" stop-color="#dc8b54" stop-opacity="0"/></radialGradient><radialGradient id="f856idb" cx="0" cy="0" r="1" gradientTransform="rotate(117.038 10.048 9.624)scale(3.11825 3.27287)" gradientUnits="userSpaceOnUse"><stop stop-color="#f49a45"/><stop offset="1" stop-color="#ea8243"/></radialGradient><radialGradient id="f856idc" cx="0" cy="0" r="1" gradientTransform="matrix(-.4375 18.63507 -27.08974 -.636 16.438 11.326)" gradientUnits="userSpaceOnUse"><stop offset=".689" stop-color="#612a4f" stop-opacity="0"/><stop offset="1" stop-color="#612a4f"/></radialGradient><radialGradient id="f856idd" cx="0" cy="0" r="1" gradientTransform="rotate(136.721 10.357 9.723)scale(10.3019 10.3305)" gradientUnits="userSpaceOnUse"><stop stop-color="#a16662"/><stop offset="1" stop-color="#a16662" stop-opacity="0"/></radialGradient><radialGradient id="f856ide" cx="0" cy="0" r="1" gradientTransform="matrix(-5.43744 7.68754 -7.38577 -5.224 13.188 15.451)" gradientUnits="userSpaceOnUse"><stop stop-color="#512242"/><stop offset="1" stop-color="#612a4f" stop-opacity="0"/></radialGradient><radialGradient id="f856idf" cx="0" cy="0" r="1" gradientTransform="matrix(-1.87503 5.37499 -5.164 -1.80143 14.125 22.076)" gradientUnits="userSpaceOnUse"><stop stop-color="#512242"/><stop offset="1" stop-color="#612a4f" stop-opacity="0"/></radialGradient><radialGradient id="f856idg" cx="0" cy="0" r="1" gradientTransform="rotate(56.464 -8.007 28.968)scale(6.44841 8.63095)" gradientUnits="userSpaceOnUse"><stop stop-color="#512242"/><stop offset="1" stop-color="#612a4f" stop-opacity="0"/></radialGradient><radialGradient id="f856idh" cx="0" cy="0" r="1" gradientTransform="matrix(0 5.09375 -12.75 0 16.094 2.264)" gradientUnits="userSpaceOnUse"><stop offset=".576" stop-color="#844649" stop-opacity="0"/><stop offset=".881" stop-color="#914e52"/></radialGradient><radialGradient id="f856idi" cx="0" cy="0" r="1" gradientTransform="rotate(-159.264 13.755 11.455)scale(7.48484)" gradientUnits="userSpaceOnUse"><stop offset=".239" stop-color="#ffcfac"/><stop offset="1" stop-color="#f5a8a2"/></radialGradient><radialGradient id="f856idj" cx="0" cy="0" r="1" gradientTransform="matrix(0 7.3125 -7.839 0 16 20.389)" gradientUnits="userSpaceOnUse"><stop offset=".65" stop-color="#ffbc99" stop-opacity="0"/><stop offset=".906" stop-color="#e98c8c"/></radialGradient><radialGradient id="f856idk" cx="0" cy="0" r="1" gradientTransform="matrix(3.3125 1.9375 -3.07134 5.251 8.25 22.201)" gradientUnits="userSpaceOnUse"><stop stop-color="#ffcfac"/><stop offset="1" stop-color="#ffcfac" stop-opacity="0"/></radialGradient><radialGradient id="f856idl" cx="0" cy="0" r="1" gradientTransform="matrix(0 2.8125 -5.36337 0 16 20.139)" gradientUnits="userSpaceOnUse"><stop stop-color="#d87b7c"/><stop offset="1" stop-color="#d87b7c" stop-opacity="0"/></radialGradient><radialGradient id="f856idm" cx="0" cy="0" r="1" gradientTransform="matrix(0 6.125 -9.07688 0 16 16.889)" gradientUnits="userSpaceOnUse"><stop offset=".76" stop-color="#e98f94" stop-opacity="0"/><stop offset="1" stop-color="#cc9688"/></radialGradient><radialGradient id="f856idn" cx="0" cy="0" r="1" gradientTransform="rotate(136.545 6.961 13.352)scale(3.88941 5.0611)" gradientUnits="userSpaceOnUse"><stop stop-color="#ffedba"/><stop offset="1" stop-color="#ffedba" stop-opacity="0"/></radialGradient><linearGradient id="f856ido" x1="10.469" x2="9.469" y1="7.279" y2="6.357" gradientUnits="userSpaceOnUse"><stop stop-color="#cb6c32"/><stop offset=".587" stop-color="#d1743a" stop-opacity="0"/></linearGradient><linearGradient id="f856idp" x1="16" x2="16" y1="1.73" y2="40.264" gradientUnits="userSpaceOnUse"><stop stop-color="#9f635e"/><stop offset="1" stop-color="#612a4f"/></linearGradient><linearGradient id="f856idq" x1="1.188" x2="7.375" y1="21.264" y2="21.264" gradientUnits="userSpaceOnUse"><stop stop-color="#9a6a66"/><stop offset="1" stop-color="#7d5956" stop-opacity="0"/></linearGradient><linearGradient id="f856idr" x1="32.625" x2="24.125" y1="21.264" y2="21.264" gradientUnits="userSpaceOnUse"><stop stop-color="#996862"/><stop offset=".551" stop-color="#996862" stop-opacity="0"/></linearGradient><linearGradient id="f856ids" x1="16" x2="16" y1=".514" y2="5.264" gradientUnits="userSpaceOnUse"><stop stop-color="#754b42"/><stop offset="1" stop-color="#754b42" stop-opacity="0"/></linearGradient><linearGradient id="f856idt" x1="5.313" x2="7.094" y1="5.717" y2="3.795" gradientUnits="userSpaceOnUse"><stop stop-color="#7e3835" stop-opacity="0"/><stop offset=".665" stop-color="#442524"/></linearGradient><linearGradient id="f856idu" x1="4.719" x2="3.25" y1="6.014" y2="2.639" gradientUnits="userSpaceOnUse"><stop stop-color="#7e3835" stop-opacity="0"/><stop offset=".572" stop-color="#442524"/></linearGradient><linearGradient id="f856idv" x1="26.683" x2="24.902" y1="5.717" y2="3.795" gradientUnits="userSpaceOnUse"><stop stop-color="#7e3835" stop-opacity="0"/><stop offset=".665" stop-color="#442524"/></linearGradient><linearGradient id="f856idw" x1="27.277" x2="28.746" y1="6.014" y2="2.639" gradientUnits="userSpaceOnUse"><stop stop-color="#7e3835" stop-opacity="0"/><stop offset=".572" stop-color="#442524"/></linearGradient><linearGradient id="f856idx" x1="16" x2="16" y1="13.941" y2="23.389" gradientUnits="userSpaceOnUse"><stop stop-color="#fdcc98"/><stop offset="1" stop-color="#fbb3be"/><stop offset="1" stop-color="#f4ad92"/></linearGradient><linearGradient id="f856idy" x1="10.781" x2="13.219" y1="15.514" y2="17.99" gradientUnits="userSpaceOnUse"><stop offset=".004" stop-color="#daa168"/><stop offset="1" stop-color="#daa168" stop-opacity="0"/></linearGradient><linearGradient id="f856idz" x1="16" x2="16" y1="22.358" y2="19.201" gradientUnits="userSpaceOnUse"><stop offset=".268" stop-color="#e98c8c"/><stop offset="1" stop-color="#dc8ce9" stop-opacity="0"/></linearGradient><linearGradient id="f856id10" x1="20.677" x2="19.843" y1="14.539" y2="14.539" gradientUnits="userSpaceOnUse"><stop offset=".225" stop-color="#594c4f"/><stop offset="1" stop-color="#392833"/></linearGradient><linearGradient id="f856id11" x1="21.002" x2="21.002" y1="16.564" y2="14.973" gradientUnits="userSpaceOnUse"><stop stop-color="#552d52"/><stop offset="1" stop-color="#552d52" stop-opacity="0"/></linearGradient><linearGradient id="f856id12" x1="12.67" x2="11.836" y1="14.539" y2="14.539" gradientUnits="userSpaceOnUse"><stop offset=".225" stop-color="#594c4f"/><stop offset="1" stop-color="#392833"/></linearGradient><linearGradient id="f856id13" x1="10.781" x2="12" y1="14.539" y2="14.539" gradientUnits="userSpaceOnUse"><stop stop-color="#594c4f"/><stop offset="1" stop-color="#594c4f" stop-opacity="0"/></linearGradient><linearGradient id="f856id14" x1="12.995" x2="12.995" y1="16.564" y2="14.973" gradientUnits="userSpaceOnUse"><stop stop-color="#552d52"/><stop offset="1" stop-color="#552d52" stop-opacity="0"/></linearGradient><linearGradient id="f856id15" x1="15.551" x2="15.551" y1="18.162" y2="20.912" gradientUnits="userSpaceOnUse"><stop stop-color="#cc9688"/><stop offset="1" stop-color="#e98f94"/></linearGradient><linearGradient id="f856id16" x1="18.689" x2="14.784" y1="16.326" y2="19.757" gradientUnits="userSpaceOnUse"><stop offset=".191" stop-color="#5f5254"/><stop offset="1" stop-color="#2e2127"/></linearGradient><linearGradient id="f856id17" x1="16.438" x2="16.438" y1="17.737" y2="16.238" gradientUnits="userSpaceOnUse"><stop offset=".147" stop-color="#34222c" stop-opacity="0"/><stop offset=".873" stop-color="#34222c"/></linearGradient><linearGradient id="f856id18" x1="17.366" x2="17.366" y1="20.251" y2="17.985" gradientUnits="userSpaceOnUse"><stop stop-color="#552d52"/><stop offset="1" stop-color="#552d52" stop-opacity="0"/></linearGradient><linearGradient id="f856id19" x1="14.25" x2="15.283" y1="19.514" y2="18.512" gradientUnits="userSpaceOnUse"><stop stop-color="#5f5254"/><stop offset="1" stop-color="#5f5254" stop-opacity="0"/></linearGradient><filter id="f856id1a" width="12" height="8.348" x="10" y="13.691" color-interpolation-filters="sRGB" filterUnits="userSpaceOnUse"><feFlood flood-opacity="0" result="BackgroundImageFix"/><feBlend in="SourceGraphic" in2="BackgroundImageFix" result="shape"/><feColorMatrix in="SourceAlpha" result="hardAlpha" values="0 0 0 0 0 0 0 0 0 0 0 0 0 0 0 0 0 0 127 0"/><feOffset dy="-.25"/><feGaussianBlur stdDeviation=".3"/><feComposite in2="hardAlpha" k2="-1" k3="1" operator="arithmetic"/><feColorMatrix values="0 0 0 0 0.875 0 0 0 0 0.415625 0 0 0 0 0.415625 0 0 0 0.75 0"/><feBlend in2="shape" result="effect1_innerShadow_28327_2199"/></filter><filter id="f856id1b" width="10.523" height="4" x="10.399" y="12.757" color-interpolation-filters="sRGB" filterUnits="userSpaceOnUse"><feFlood flood-opacity="0" result="BackgroundImageFix"/><feBlend in="SourceGraphic" in2="BackgroundImageFix" result="shape"/><feGaussianBlur result="effect1_foregroundBlur_28327_2199" stdDeviation=".25"/></filter><filter id="f856id1c" width="4.25" height="5.625" x="15.094" y="13.295" color-interpolation-filters="sRGB" filterUnits="userSpaceOnUse"><feFlood flood-opacity="0" result="BackgroundImageFix"/><feBlend in="SourceGraphic" in2="BackgroundImageFix" result="shape"/><feGaussianBlur result="effect1_foregroundBlur_28327_2199" stdDeviation=".5"/></filter><filter id="f856id1d" width="5.898" height="3.844" x="12.602" y="17.1" color-interpolation-filters="sRGB" filterUnits="userSpaceOnUse"><feFlood flood-opacity="0" result="BackgroundImageFix"/><feBlend in="SourceGraphic" in2="BackgroundImageFix" result="shape"/><feGaussianBlur result="effect1_foregroundBlur_28327_2199" stdDeviation=".25"/></filter><filter id="f856id1e" width="6.122" height="5.484" x="16.55" y="16.279" color-interpolation-filters="sRGB" filterUnits="userSpaceOnUse"><feFlood flood-opacity="0" result="BackgroundImageFix"/><feBlend in="SourceGraphic" in2="BackgroundImageFix" result="shape"/><feGaussianBlur result="effect1_foregroundBlur_28327_2199" stdDeviation=".5"/></filter><filter id="f856id1f" width="7.281" height="5.875" x="15.297" y="1.592" color-interpolation-filters="sRGB" filterUnits="userSpaceOnUse"><feFlood flood-opacity="0" result="BackgroundImageFix"/><feBlend in="SourceGraphic" in2="BackgroundImageFix" result="shape"/><feGaussianBlur result="effect1_foregroundBlur_28327_2199" stdDeviation=".625"/></filter><filter id="f856id1g" width="4.813" height="11.854" x="26.156" y="12.848" color-interpolation-filters="sRGB" filterUnits="userSpaceOnUse"><feFlood flood-opacity="0" result="BackgroundImageFix"/><feBlend in="SourceGraphic" in2="BackgroundImageFix" result="shape"/><feGaussianBlur result="effect1_foregroundBlur_28327_2199" stdDeviation="1"/></filter><filter id="f856id1h" width="4.813" height="8.394" x="25.472" y="4.679" color-interpolation-filters="sRGB" filterUnits="userSpaceOnUse"><feFlood flood-opacity="0" result="BackgroundImageFix"/><feBlend in="SourceGraphic" in2="BackgroundImageFix" result="shape"/><feGaussianBlur result="effect1_foregroundBlur_28327_2199" stdDeviation="1"/></filter><filter id="f856id1i" width="3.028" height="4.403" x="23.9" y="1.851" color-interpolation-filters="sRGB" filterUnits="userSpaceOnUse"><feFlood flood-opacity="0" result="BackgroundImageFix"/><feBlend in="SourceGraphic" in2="BackgroundImageFix" result="shape"/><feGaussianBlur result="effect1_foregroundBlur_28327_2199" stdDeviation=".5"/></filter></defs></g></svg>