<svg xmlns="http://www.w3.org/2000/svg" viewBox="0 0 32 32"><g fill="none"><g clip-path="url(#f2228idn)"><path fill="url(#f2228idb)" d="M15.999 29.998c9.334 0 13.999-6.268 13.999-14c0-7.73-4.665-13.998-14-13.998C6.665 2 2 8.268 2 15.999c0 7.731 4.664 13.999 13.999 13.999"/><path fill="url(#f2228idc)" d="M15.999 29.998c9.334 0 13.999-6.268 13.999-14c0-7.73-4.665-13.998-14-13.998C6.665 2 2 8.268 2 15.999c0 7.731 4.664 13.999 13.999 13.999"/><path fill="url(#f2228idd)" d="M15.999 29.998c9.334 0 13.999-6.268 13.999-14c0-7.73-4.665-13.998-14-13.998C6.665 2 2 8.268 2 15.999c0 7.731 4.664 13.999 13.999 13.999"/><path fill="url(#f2228ide)" fill-opacity="0.6" d="M15.999 29.998c9.334 0 13.999-6.268 13.999-14c0-7.73-4.665-13.998-14-13.998C6.665 2 2 8.268 2 15.999c0 7.731 4.664 13.999 13.999 13.999"/><path fill="url(#f2228idf)" d="M15.999 29.998c9.334 0 13.999-6.268 13.999-14c0-7.73-4.665-13.998-14-13.998C6.665 2 2 8.268 2 15.999c0 7.731 4.664 13.999 13.999 13.999"/><path fill="url(#f2228idg)" d="M15.999 29.998c9.334 0 13.999-6.268 13.999-14c0-7.73-4.665-13.998-14-13.998C6.665 2 2 8.268 2 15.999c0 7.731 4.664 13.999 13.999 13.999"/><path fill="url(#f2228idh)" d="M15.999 29.998c9.334 0 13.999-6.268 13.999-14c0-7.73-4.665-13.998-14-13.998C6.665 2 2 8.268 2 15.999c0 7.731 4.664 13.999 13.999 13.999"/><path fill="url(#f2228idi)" d="M15.999 29.998c9.334 0 13.999-6.268 13.999-14c0-7.73-4.665-13.998-14-13.998C6.665 2 2 8.268 2 15.999c0 7.731 4.664 13.999 13.999 13.999"/><path fill="url(#f2228idk)" d="M3 1.1c1.213-.36 2.5.4 3 .9c.5-.5 2.168-1.832 3.75-.25C11.025 3.025 10.5 5 9.5 6.5c-.589.883-2.116 2.272-3.347 3.21c-.644.49-1.54.345-2.086-.253C3.143 8.444 1.973 7.145 1.4 6c-1-2 0-4.425 1.6-4.9"/><g filter="url(#f2228id0)" opacity="0.5"><path stroke="#9a4609" stroke-linecap="round" stroke-width="2" d="M7.5 11.5s.25-2 2.5-2s2.5 2 2.5 2"/></g><g filter="url(#f2228id1)" opacity="0.5"><path stroke="#9a4609" stroke-linecap="round" stroke-width="2" d="M18.5 11.5s.5-2 2.5-2s2.5 2 2.5 2"/></g><path stroke="#43273b" stroke-linecap="round" stroke-linejoin="round" stroke-width="2" d="M8 11s.25-2 2.5-2s2.5 2 2.5 2"/><g filter="url(#f2228id2)" opacity="0.26"><path stroke="#fff" stroke-linecap="round" stroke-linejoin="round" stroke-width="0.75" d="M8.25 10.75s.25-2 2.5-2s2.5 2 2.5 2"/></g><path stroke="#43273b" stroke-linecap="round" stroke-linejoin="round" stroke-width="2" d="M19 11s.5-2 2.5-2s2.5 2 2.5 2"/><g filter="url(#f2228id3)" opacity="0.26"><path stroke="#fff" stroke-linecap="round" stroke-linejoin="round" stroke-width="0.75" d="M19.25 10.75s.25-2 2.5-2s2.5 2 2.5 2"/></g><path fill="url(#f2228idl)" d="M4 28c-1.118-1.118-1.5-3-.5-4s3-.5 3-.5s.5-1.25 2-1c2 .25 2.25 2.5 1.75 4c-.382 1.146-1.307 2.369-1.98 3.156c-.431.506-1.167.58-1.717.204C5.628 29.23 4.316 28.316 4 28"/><g filter="url(#f2228id4)"><path fill="#e4694e" d="M21 18.1c1.5-.5 3.167.9 3.5 1.4c.167-.5.9-1.5 2.5-1.5c2 0 .557 2.107 0 3.5c-.625 1.562-1.64 3.48-2.314 4.698a.97.97 0 0 1-1.592.156C22.1 25.187 20.572 23.358 20 22.5c-1-1.5-.897-3.767 1-4.4"/></g><path fill="url(#f2228idm)" d="M23 17.1c1.5-.5 3.167.9 3.5 1.4c.167-.5.9-1.5 2.5-1.5c2 0 2.557 2.107 2 3.5c-.73 1.826-3.06 4.136-4.264 5.25a.956.956 0 0 1-1.381-.09c-.963-1.126-2.73-3.222-3.355-4.16c-1-1.5-.897-3.767 1-4.4"/><path stroke="url(#f2228idj)" stroke-linecap="round" stroke-width="2" d="M12 16c0 1.333.8 4 4 4s4-2.667 4-4"/><g filter="url(#f2228id5)" opacity="0.8"><path stroke="#fff" d="M9.5 2.5L7 5"/></g><g filter="url(#f2228id6)" opacity="0.8"><path stroke="#fff" d="m25 18.5l2.5 3l2-2.5"/></g><g filter="url(#f2228id7)"><circle cx="8.5" cy="24.5" r="1" fill="#fff"/></g><g filter="url(#f2228id8)" opacity="0.6"><path stroke="#f944a5" stroke-width="2" d="M7.5 29.5L9 26"/></g><g filter="url(#f2228id9)"><path stroke="#f944a5" d="M26.5 24.5L23 20"/></g><g filter="url(#f2228ida)"><path stroke="#f944a5" d="M5.5 8.5L8 6"/></g></g><defs><filter id="f2228id0" width="10" height="7" x="5" y="7" color-interpolation-filters="sRGB" filterUnits="userSpaceOnUse"><feFlood flood-opacity="0" result="BackgroundImageFix"/><feBlend in="SourceGraphic" in2="BackgroundImageFix" result="shape"/><feGaussianBlur result="effect1_foregroundBlur_20_194" stdDeviation=".75"/></filter><filter id="f2228id1" width="10.001" height="7" x="16" y="7" color-interpolation-filters="sRGB" filterUnits="userSpaceOnUse"><feFlood flood-opacity="0" result="BackgroundImageFix"/><feBlend in="SourceGraphic" in2="BackgroundImageFix" result="shape"/><feGaussianBlur result="effect1_foregroundBlur_20_194" stdDeviation=".75"/></filter><filter id="f2228id2" width="8.75" height="5.75" x="6.375" y="6.875" color-interpolation-filters="sRGB" filterUnits="userSpaceOnUse"><feFlood flood-opacity="0" result="BackgroundImageFix"/><feBlend in="SourceGraphic" in2="BackgroundImageFix" result="shape"/><feGaussianBlur result="effect1_foregroundBlur_20_194" stdDeviation=".75"/></filter><filter id="f2228id3" width="8.75" height="5.75" x="17.375" y="6.875" color-interpolation-filters="sRGB" filterUnits="userSpaceOnUse"><feFlood flood-opacity="0" result="BackgroundImageFix"/><feBlend in="SourceGraphic" in2="BackgroundImageFix" result="shape"/><feGaussianBlur result="effect1_foregroundBlur_20_194" stdDeviation=".75"/></filter><filter id="f2228id4" width="12.653" height="12.707" x="17.373" y="15.994" color-interpolation-filters="sRGB" filterUnits="userSpaceOnUse"><feFlood flood-opacity="0" result="BackgroundImageFix"/><feBlend in="SourceGraphic" in2="BackgroundImageFix" result="shape"/><feGaussianBlur result="effect1_foregroundBlur_20_194" stdDeviation="1"/></filter><filter id="f2228id5" width="7.207" height="7.207" x="4.646" y=".146" color-interpolation-filters="sRGB" filterUnits="userSpaceOnUse"><feFlood flood-opacity="0" result="BackgroundImageFix"/><feBlend in="SourceGraphic" in2="BackgroundImageFix" result="shape"/><feGaussianBlur result="effect1_foregroundBlur_20_194" stdDeviation="1"/></filter><filter id="f2228id6" width="9.274" height="8.111" x="22.616" y="16.18" color-interpolation-filters="sRGB" filterUnits="userSpaceOnUse"><feFlood flood-opacity="0" result="BackgroundImageFix"/><feBlend in="SourceGraphic" in2="BackgroundImageFix" result="shape"/><feGaussianBlur result="effect1_foregroundBlur_20_194" stdDeviation="1"/></filter><filter id="f2228id7" width="6" height="6" x="5.5" y="21.5" color-interpolation-filters="sRGB" filterUnits="userSpaceOnUse"><feFlood flood-opacity="0" result="BackgroundImageFix"/><feBlend in="SourceGraphic" in2="BackgroundImageFix" result="shape"/><feGaussianBlur result="effect1_foregroundBlur_20_194" stdDeviation="1"/></filter><filter id="f2228id8" width="5.338" height="6.288" x="5.581" y="24.606" color-interpolation-filters="sRGB" filterUnits="userSpaceOnUse"><feFlood flood-opacity="0" result="BackgroundImageFix"/><feBlend in="SourceGraphic" in2="BackgroundImageFix" result="shape"/><feGaussianBlur result="effect1_foregroundBlur_20_194" stdDeviation=".5"/></filter><filter id="f2228id9" width="8.29" height="9.114" x="20.605" y="17.693" color-interpolation-filters="sRGB" filterUnits="userSpaceOnUse"><feFlood flood-opacity="0" result="BackgroundImageFix"/><feBlend in="SourceGraphic" in2="BackgroundImageFix" result="shape"/><feGaussianBlur result="effect1_foregroundBlur_20_194" stdDeviation="1"/></filter><filter id="f2228ida" width="7.207" height="7.207" x="3.146" y="3.646" color-interpolation-filters="sRGB" filterUnits="userSpaceOnUse"><feFlood flood-opacity="0" result="BackgroundImageFix"/><feBlend in="SourceGraphic" in2="BackgroundImageFix" result="shape"/><feGaussianBlur result="effect1_foregroundBlur_20_194" stdDeviation="1"/></filter><radialGradient id="f2228idb" cx="0" cy="0" r="1" gradientTransform="rotate(132.839 10.786 10.065)scale(37.5033)" gradientUnits="userSpaceOnUse"><stop stop-color="#fff478"/><stop offset=".475" stop-color="#ffb02e"/><stop offset="1" stop-color="#f70a8d"/></radialGradient><radialGradient id="f2228idc" cx="0" cy="0" r="1" gradientTransform="rotate(131.878 10.74 10.193)scale(38.9487)" gradientUnits="userSpaceOnUse"><stop stop-color="#fff478"/><stop offset=".475" stop-color="#ffb02e"/><stop offset="1" stop-color="#f70a8d"/></radialGradient><radialGradient id="f2228idd" cx="0" cy="0" r="1" gradientTransform="rotate(101.31 2.876 12.808)scale(17.8466 22.8581)" gradientUnits="userSpaceOnUse"><stop offset=".788" stop-color="#f59639" stop-opacity="0"/><stop offset=".973" stop-color="#ff7dce"/></radialGradient><radialGradient id="f2228ide" cx="0" cy="0" r="1" gradientTransform="matrix(-29 29 -29 -29 18 14)" gradientUnits="userSpaceOnUse"><stop offset=".315" stop-opacity="0"/><stop offset="1"/></radialGradient><radialGradient id="f2228idf" cx="0" cy="0" r="1" gradientTransform="rotate(77.692 -2.555 18.434)scale(28.1469)" gradientUnits="userSpaceOnUse"><stop offset=".508" stop-color="#7d6133" stop-opacity="0"/><stop offset="1" stop-color="#715b32"/></radialGradient><radialGradient id="f2228idg" cx="0" cy="0" r="1" gradientTransform="matrix(7.5 10.99996 -7.97335 5.4364 16.5 16.5)" gradientUnits="userSpaceOnUse"><stop stop-color="#ffb849"/><stop offset="1" stop-color="#ffb847" stop-opacity="0"/></radialGradient><radialGradient id="f2228idh" cx="0" cy="0" r="1" gradientTransform="matrix(11.49998 2 -2 11.49998 20.5 18)" gradientUnits="userSpaceOnUse"><stop stop-color="#ffa64b"/><stop offset=".9" stop-color="#ffae46" stop-opacity="0"/></radialGradient><radialGradient id="f2228idi" cx="0" cy="0" r="1" gradientTransform="rotate(43.971 -9.827 29.173)scale(59.0529)" gradientUnits="userSpaceOnUse"><stop offset=".185" stop-opacity="0"/><stop offset="1" stop-opacity="0.4"/></radialGradient><radialGradient id="f2228idj" cx="0" cy="0" r="1" gradientTransform="matrix(0 10.5 -6.42871 0 16 12)" gradientUnits="userSpaceOnUse"><stop offset=".556" stop-color="#584343"/><stop offset=".74" stop-color="#66525e"/><stop offset="1" stop-color="#4e2553"/><stop offset="1" stop-color="#522c57"/></radialGradient><linearGradient id="f2228idk" x1="4.5" x2="8.136" y1="3.5" y2="8.277" gradientUnits="userSpaceOnUse"><stop stop-color="#dc2e50"/><stop offset="1" stop-color="#f70a8d"/></linearGradient><linearGradient id="f2228idl" x1="6" x2="9.342" y1="24.5" y2="29.907" gradientUnits="userSpaceOnUse"><stop stop-color="#ca0b4a"/><stop offset="1" stop-color="#f70a8d"/></linearGradient><linearGradient id="f2228idm" x1="29.099" x2="25.876" y1="18.037" y2="25.428" gradientUnits="userSpaceOnUse"><stop stop-color="#ca0b4a"/><stop offset="1" stop-color="#f70a8d"/></linearGradient><clipPath id="f2228idn"><path fill="#fff" d="M0 0h32v32H0z"/></clipPath></defs></g></svg>