<svg xmlns="http://www.w3.org/2000/svg" viewBox="0 0 32 32"><g fill="none"><path fill="#e3af81" d="m28.93 2.005l-16.64 1.69c-.48.05-.84.48-.8.96c.04.49.46.85.94.82l16.7-.86a.9.9 0 0 0 .85-.96l-.07-.83a.894.894 0 0 0-.98-.82"/><path fill="url(#f2286id0)" d="m28.93 2.005l-16.64 1.69c-.48.05-.84.48-.8.96c.04.49.46.85.94.82l16.7-.86a.9.9 0 0 0 .85-.96l-.07-.83a.894.894 0 0 0-.98-.82"/><path fill="url(#f2286id1)" d="m28.93 2.005l-16.64 1.69c-.48.05-.84.48-.8.96c.04.49.46.85.94.82l16.7-.86a.9.9 0 0 0 .85-.96l-.07-.83a.894.894 0 0 0-.98-.82"/><g filter="url(#f2286idl)"><path fill="#e3af81" d="M28.844 2.203L12.533 3.841c-.455.047-.929.342-.891.797c.038.455.544.625.999.596l16.328-.906c.474-.028.881-.338.843-.812l-.078-.657c-.038-.474-.416-.703-.89-.656"/><path fill="url(#f2286id2)" d="M28.844 2.203L12.533 3.841c-.455.047-.929.342-.891.797c.038.455.544.625.999.596l16.328-.906c.474-.028.881-.338.843-.812l-.078-.657c-.038-.474-.416-.703-.89-.656"/><path fill="url(#f2286id3)" d="M28.844 2.203L12.533 3.841c-.455.047-.929.342-.891.797c.038.455.544.625.999.596l16.328-.906c.474-.028.881-.338.843-.812l-.078-.657c-.038-.474-.416-.703-.89-.656"/></g><path fill="#e3af81" d="m29.12 7.384l-16.71-.37c-.49-.02-.9.36-.92.85c-.02.48.35.9.83.93L29 9.994c.5.04.94-.35.96-.85l.04-.83c.02-.5-.38-.92-.88-.93"/><path fill="url(#f2286id4)" d="m29.12 7.384l-16.71-.37c-.49-.02-.9.36-.92.85c-.02.48.35.9.83.93L29 9.994c.5.04.94-.35.96-.85l.04-.83c.02-.5-.38-.92-.88-.93"/><path fill="url(#f2286id5)" d="m29.12 7.384l-16.71-.37c-.49-.02-.9.36-.92.85c-.02.48.35.9.83.93L29 9.994c.5.04.94-.35.96-.85l.04-.83c.02-.5-.38-.92-.88-.93"/><g filter="url(#f2286idm)"><path fill="#e3af81" d="M28.872 7.622L12.8 7.272c-.467-.019-.853.156-.872.623c-.02.457.414.545.872.574l16.045 1.14c.476.038.814-.021.833-.497l.038-.791c.02-.477-.366-.69-.843-.699"/><path fill="url(#f2286id6)" d="M28.872 7.622L12.8 7.272c-.467-.019-.853.156-.872.623c-.02.457.414.545.872.574l16.045 1.14c.476.038.814-.021.833-.497l.038-.791c.02-.477-.366-.69-.843-.699"/><path fill="url(#f2286id7)" d="M28.872 7.622L12.8 7.272c-.467-.019-.853.156-.872.623c-.02.457.414.545.872.574l16.045 1.14c.476.038.814-.021.833-.497l.038-.791c.02-.477-.366-.69-.843-.699"/><path fill="url(#f2286id8)" d="M28.872 7.622L12.8 7.272c-.467-.019-.853.156-.872.623c-.02.457.414.545.872.574l16.045 1.14c.476.038.814-.021.833-.497l.038-.791c.02-.477-.366-.69-.843-.699"/><path fill="url(#f2286id9)" d="M28.872 7.622L12.8 7.272c-.467-.019-.853.156-.872.623c-.02.457.414.545.872.574l16.045 1.14c.476.038.814-.021.833-.497l.038-.791c.02-.477-.366-.69-.843-.699"/></g><path stroke="url(#f2286ida)" stroke-linecap="round" stroke-linejoin="round" stroke-miterlimit="10" d="M13.52 3.834v14.53"/><path stroke="url(#f2286idb)" stroke-linecap="round" stroke-linejoin="round" stroke-miterlimit="10" d="M15.5 7.125v11.47"/><path stroke="url(#f2286idc)" stroke-linecap="round" stroke-linejoin="round" stroke-miterlimit="10" d="M17.53 7.125v6.35"/><path stroke="url(#f2286idg)" stroke-linecap="round" stroke-linejoin="round" stroke-miterlimit="10" d="M17.53 7.125v6.35"/><path fill="#b72751" d="M18.75 27.215h-5.58c-5.05 0-9.14-4.1-9.14-9.15v-1.66c0-.38.31-.69.69-.69h22.5c.38 0 .69.31.69.69v1.66c-.01 5.05-4.1 9.15-9.16 9.15"/><path fill="url(#f2286idh)" d="M18.75 27.215h-5.58c-5.05 0-9.14-4.1-9.14-9.15v-1.66c0-.38.31-.69.69-.69h22.5c.38 0 .69.31.69.69v1.66c-.01 5.05-4.1 9.15-9.16 9.15"/><g filter="url(#f2286idn)"><path fill="#b72751" d="M18.75 26.883h-5.463c-5.05 0-8.883-3.805-8.883-8.635V16.66c0-.363-.065-.66.315-.66h22.5c.38 0 .341.297.341.66v1.588c-.01 4.83-3.75 8.635-8.81 8.635"/><path fill="url(#f2286idi)" d="M18.75 26.883h-5.463c-5.05 0-8.883-3.805-8.883-8.635V16.66c0-.363-.065-.66.315-.66h22.5c.38 0 .341.297.341.66v1.588c-.01 4.83-3.75 8.635-8.81 8.635"/><path fill="url(#f2286idd)" d="M18.75 26.883h-5.463c-5.05 0-8.883-3.805-8.883-8.635V16.66c0-.363-.065-.66.315-.66h22.5c.38 0 .341.297.341.66v1.588c-.01 4.83-3.75 8.635-8.81 8.635"/><path fill="url(#f2286ide)" d="M18.75 26.883h-5.463c-5.05 0-8.883-3.805-8.883-8.635V16.66c0-.363-.065-.66.315-.66h22.5c.38 0 .341.297.341.66v1.588c-.01 4.83-3.75 8.635-8.81 8.635"/><path fill="url(#f2286idj)" d="M18.75 26.883h-5.463c-5.05 0-8.883-3.805-8.883-8.635V16.66c0-.363-.065-.66.315-.66h22.5c.38 0 .341.297.341.66v1.588c-.01 4.83-3.75 8.635-8.81 8.635"/></g><path fill="#a8323d" d="M22.61 26.375H9.421l-.673 2.662c-.16.423.27.838.88.838h12.68c.6 0 1.04-.415.88-.838z"/><path fill="url(#f2286idk)" d="M22.61 26.375H9.421l-.673 2.662c-.16.423.27.838.88.838h12.68c.6 0 1.04-.415.88-.838z"/><path fill="url(#f2286idf)" d="M22.61 26.375H9.421l-.673 2.662c-.16.423.27.838.88.838h12.68c.6 0 1.04-.415.88-.838z"/><defs><linearGradient id="f2286id0" x1="11.486" x2="29.982" y1="4.625" y2="2.938" gradientUnits="userSpaceOnUse"><stop stop-color="#b18c66"/><stop offset=".246" stop-color="#d8ac7d"/><stop offset=".707" stop-color="#d5a370"/><stop offset="1" stop-color="#db9e69"/></linearGradient><linearGradient id="f2286id1" x1="22.328" x2="22.266" y1="5.219" y2="4.266" gradientUnits="userSpaceOnUse"><stop offset=".178" stop-color="#bb7351"/><stop offset="1" stop-color="#be7a5c" stop-opacity="0"/></linearGradient><linearGradient id="f2286id2" x1="11.826" x2="29.5" y1="4.875" y2="3.25" gradientUnits="userSpaceOnUse"><stop offset=".062" stop-color="#d1a581"/><stop offset=".154" stop-color="#fac28a"/><stop offset=".281" stop-color="#e4b184"/><stop offset=".971" stop-color="#e0a97b"/><stop offset="1" stop-color="#f5bb84"/></linearGradient><linearGradient id="f2286id3" x1="12.531" x2="13.773" y1="4.867" y2="4.82" gradientUnits="userSpaceOnUse"><stop offset=".062" stop-color="#bb895c" stop-opacity="0"/><stop offset=".256" stop-color="#bb885b"/><stop offset=".601" stop-color="#bc885a"/><stop offset="1" stop-color="#bc8759" stop-opacity="0"/></linearGradient><linearGradient id="f2286id4" x1="11.489" x2="29.945" y1="9.267" y2="7.303" gradientUnits="userSpaceOnUse"><stop stop-color="#b18c66"/><stop offset=".246" stop-color="#d8ac7d"/><stop offset=".707" stop-color="#d5a370"/><stop offset="1" stop-color="#db9e69"/></linearGradient><linearGradient id="f2286id5" x1="22.219" x2="22.342" y1="9.813" y2="8.346" gradientUnits="userSpaceOnUse"><stop offset=".178" stop-color="#c45a46"/><stop offset="1" stop-color="#be7a5c" stop-opacity="0"/></linearGradient><linearGradient id="f2286id6" x1="12.188" x2="29.107" y1="8.446" y2="7.896" gradientUnits="userSpaceOnUse"><stop offset=".062" stop-color="#d1a581"/><stop offset=".154" stop-color="#fac28a"/><stop offset=".281" stop-color="#e4b184"/><stop offset=".991" stop-color="#e0a97b"/><stop offset="1" stop-color="#f5bb84"/></linearGradient><linearGradient id="f2286id7" x1="12.523" x2="13.656" y1="9.297" y2="9.313" gradientUnits="userSpaceOnUse"><stop offset=".062" stop-color="#bb895c" stop-opacity="0"/><stop offset=".256" stop-color="#bb885b"/><stop offset=".601" stop-color="#bc885a"/><stop offset="1" stop-color="#bc8759" stop-opacity="0"/></linearGradient><linearGradient id="f2286id8" x1="14.563" x2="15.406" y1="9.297" y2="9.301" gradientUnits="userSpaceOnUse"><stop offset=".062" stop-color="#bb895c" stop-opacity="0"/><stop offset=".256" stop-color="#cb8350"/><stop offset=".601" stop-color="#ca814e"/><stop offset="1" stop-color="#bc8759" stop-opacity="0"/></linearGradient><linearGradient id="f2286id9" x1="16.563" x2="17.266" y1="9.297" y2="9.319" gradientUnits="userSpaceOnUse"><stop offset=".062" stop-color="#bb895c" stop-opacity="0"/><stop offset=".256" stop-color="#cb8350"/><stop offset=".601" stop-color="#ca814e"/><stop offset="1" stop-color="#bc8759" stop-opacity="0"/></linearGradient><linearGradient id="f2286ida" x1="12.938" x2="14.703" y1="9.313" y2="9.313" gradientUnits="userSpaceOnUse"><stop stop-color="#ba8c3d"/><stop offset=".251" stop-color="#deb030"/><stop offset=".496" stop-color="#ffd851"/><stop offset=".708" stop-color="#e8b83e"/></linearGradient><linearGradient id="f2286idb" x1="14.918" x2="16.683" y1="11.449" y2="11.449" gradientUnits="userSpaceOnUse"><stop stop-color="#ba8c3d"/><stop offset=".251" stop-color="#deb030"/><stop offset=".496" stop-color="#ffd851"/><stop offset=".708" stop-color="#e8b83e"/></linearGradient><linearGradient id="f2286idc" x1="16.948" x2="18.713" y1="9.519" y2="9.519" gradientUnits="userSpaceOnUse"><stop stop-color="#ba8c3d"/><stop offset=".251" stop-color="#deb030"/><stop offset=".496" stop-color="#ffd851"/><stop offset=".708" stop-color="#e8b83e"/></linearGradient><linearGradient id="f2286idd" x1="15.969" x2="15.969" y1="16" y2="17.063" gradientUnits="userSpaceOnUse"><stop stop-color="#ff568d"/><stop offset="1" stop-color="#ff578e" stop-opacity="0"/></linearGradient><linearGradient id="f2286ide" x1="4.029" x2="17.029" y1="17.75" y2="17.75" gradientUnits="userSpaceOnUse"><stop stop-color="#a93e5b"/><stop offset=".553" stop-color="#cb2664"/><stop offset="1" stop-color="#e23874" stop-opacity="0"/></linearGradient><linearGradient id="f2286idf" x1="15.969" x2="15.969" y1="28.875" y2="29.875" gradientUnits="userSpaceOnUse"><stop stop-color="#cd215a" stop-opacity="0"/><stop offset="1" stop-color="#bd2a56"/></linearGradient><radialGradient id="f2286idg" cx="0" cy="0" r="1" gradientTransform="matrix(0 6.8125 -3.2793 0 17.53 8.656)" gradientUnits="userSpaceOnUse"><stop offset=".674" stop-color="#db5d1b" stop-opacity="0"/><stop offset=".817" stop-color="#dd6219"/></radialGradient><radialGradient id="f2286idh" cx="0" cy="0" r="1" gradientTransform="matrix(0 16 -17.92 0 23.654 16.125)" gradientUnits="userSpaceOnUse"><stop stop-color="#fc4982"/><stop offset=".59" stop-color="#d72654"/><stop offset=".957" stop-color="#bb244e" stop-opacity="0"/></radialGradient><radialGradient id="f2286idi" cx="0" cy="0" r="1" gradientTransform="matrix(0 15.3043 -17.92 0 23.654 16.393)" gradientUnits="userSpaceOnUse"><stop stop-color="#fc4982"/><stop offset=".59" stop-color="#d72654"/><stop offset=".957" stop-color="#bb244e" stop-opacity="0"/></radialGradient><radialGradient id="f2286idj" cx="0" cy="0" r="1" gradientTransform="matrix(0 6.25 -12.5 0 21 18.313)" gradientUnits="userSpaceOnUse"><stop stop-color="#fa4a81"/><stop offset="1" stop-color="#f8497f" stop-opacity="0"/></radialGradient><radialGradient id="f2286idk" cx="0" cy="0" r="1" gradientTransform="matrix(0 6.0625 -11.7219 0 20.438 27.5)" gradientUnits="userSpaceOnUse"><stop stop-color="#ff5587"/><stop offset=".663" stop-color="#ca2548"/><stop offset=".898" stop-color="#ce274c" stop-opacity="0"/></radialGradient><filter id="f2286idl" width="18.975" height="3.84" x="11.24" y="1.797" color-interpolation-filters="sRGB" filterUnits="userSpaceOnUse"><feFlood flood-opacity="0" result="BackgroundImageFix"/><feBlend in="SourceGraphic" in2="BackgroundImageFix" result="shape"/><feGaussianBlur result="effect1_foregroundBlur_18_28242" stdDeviation=".2"/></filter><filter id="f2286idm" width="18.79" height="3.348" x="11.426" y="6.771" color-interpolation-filters="sRGB" filterUnits="userSpaceOnUse"><feFlood flood-opacity="0" result="BackgroundImageFix"/><feBlend in="SourceGraphic" in2="BackgroundImageFix" result="shape"/><feGaussianBlur result="effect1_foregroundBlur_18_28242" stdDeviation=".25"/></filter><filter id="f2286idn" width="23.662" height="11.382" x="4.15" y="15.75" color-interpolation-filters="sRGB" filterUnits="userSpaceOnUse"><feFlood flood-opacity="0" result="BackgroundImageFix"/><feBlend in="SourceGraphic" in2="BackgroundImageFix" result="shape"/><feGaussianBlur result="effect1_foregroundBlur_18_28242" stdDeviation=".125"/></filter></defs></g></svg>