<svg xmlns="http://www.w3.org/2000/svg" viewBox="0 0 32 32"><g fill="none"><circle cx="7.873" cy="6.897" r="3.897" fill="url(#f2367idu)"/><circle cx="24.094" cy="6.897" r="3.897" fill="url(#f2367idv)"/><circle cx="24.094" cy="6.897" r="3.897" fill="url(#f2367idw)"/><circle cx="24.094" cy="6.897" r="3.897" fill="url(#f2367idx)" fill-opacity="0.5"/><circle cx="7.944" cy="6.955" r="2.453" fill="url(#f2367idy)"/><circle cx="7.944" cy="6.955" r="2.453" fill="url(#f2367idz)"/><circle cx="24.028" cy="6.955" r="2.453" fill="url(#f2367id10)"/><circle cx="24.028" cy="6.955" r="2.453" fill="url(#f2367id11)" fill-opacity="0.75"/><path fill="url(#f2367id12)" d="m27.74 12.466l-1.78-2.08c-.97-1.199-3.006-3.935-5.32-5.15a9.963 9.963 0 0 0-4.65-1.14c-1.68 0-3.26.41-4.65 1.14c-1.568.733-4.505 4.201-5.33 5.15l-1.77 2.08a9.39 9.39 0 0 0-2.25 6.09v3.85c0 2.59 2.1 4.69 4.69 4.69H25.3c2.59 0 4.69-2.1 4.69-4.69v-3.85c0-2.23-.8-4.39-2.25-6.09"/><path fill="url(#f2367id0)" d="m27.74 12.466l-1.78-2.08c-.97-1.199-3.006-3.935-5.32-5.15a9.963 9.963 0 0 0-4.65-1.14c-1.68 0-3.26.41-4.65 1.14c-1.568.733-4.505 4.201-5.33 5.15l-1.77 2.08a9.39 9.39 0 0 0-2.25 6.09v3.85c0 2.59 2.1 4.69 4.69 4.69H25.3c2.59 0 4.69-2.1 4.69-4.69v-3.85c0-2.23-.8-4.39-2.25-6.09"/><path fill="url(#f2367id13)" d="m27.74 12.466l-1.78-2.08c-.97-1.199-3.006-3.935-5.32-5.15a9.963 9.963 0 0 0-4.65-1.14c-1.68 0-3.26.41-4.65 1.14c-1.568.733-4.505 4.201-5.33 5.15l-1.77 2.08a9.39 9.39 0 0 0-2.25 6.09v3.85c0 2.59 2.1 4.69 4.69 4.69H25.3c2.59 0 4.69-2.1 4.69-4.69v-3.85c0-2.23-.8-4.39-2.25-6.09"/><path fill="url(#f2367id1)" d="m27.74 12.466l-1.78-2.08c-.97-1.199-3.006-3.935-5.32-5.15a9.963 9.963 0 0 0-4.65-1.14c-1.68 0-3.26.41-4.65 1.14c-1.568.733-4.505 4.201-5.33 5.15l-1.77 2.08a9.39 9.39 0 0 0-2.25 6.09v3.85c0 2.59 2.1 4.69 4.69 4.69H25.3c2.59 0 4.69-2.1 4.69-4.69v-3.85c0-2.23-.8-4.39-2.25-6.09"/><path fill="url(#f2367id2)" d="m27.74 12.466l-1.78-2.08c-.97-1.199-3.006-3.935-5.32-5.15a9.963 9.963 0 0 0-4.65-1.14c-1.68 0-3.26.41-4.65 1.14c-1.568.733-4.505 4.201-5.33 5.15l-1.77 2.08a9.39 9.39 0 0 0-2.25 6.09v3.85c0 2.59 2.1 4.69 4.69 4.69H25.3c2.59 0 4.69-2.1 4.69-4.69v-3.85c0-2.23-.8-4.39-2.25-6.09"/><path fill="url(#f2367id14)" d="M15.99 30.002c-3.87 0-7-3.13-7-7v-2h14v2c0 3.87-3.13 7-7 7"/><path fill="url(#f2367id15)" d="M15.99 30.002c-3.87 0-7-3.13-7-7v-2h14v2c0 3.87-3.13 7-7 7"/><path fill="url(#f2367id16)" d="M15.99 30.002c-3.87 0-7-3.13-7-7v-2h14v2c0 3.87-3.13 7-7 7"/><path fill="url(#f2367id17)" d="M15.99 30.002c-3.87 0-7-3.13-7-7v-2h14v2c0 3.87-3.13 7-7 7"/><g filter="url(#f2367id1b)"><path fill="url(#f2367id18)" d="M19.99 18.002h-8c-1.66 0-3 1.34-3 3s1.34 3 3 3h1.5a3 3 0 0 0 2.5-1.34a3 3 0 0 0 2.5 1.34h1.5c1.66 0 3-1.34 3-3s-1.34-3-3-3"/><path fill="url(#f2367id3)" d="M19.99 18.002h-8c-1.66 0-3 1.34-3 3s1.34 3 3 3h1.5a3 3 0 0 0 2.5-1.34a3 3 0 0 0 2.5 1.34h1.5c1.66 0 3-1.34 3-3s-1.34-3-3-3"/><path fill="url(#f2367id19)" d="M19.99 18.002h-8c-1.66 0-3 1.34-3 3s1.34 3 3 3h1.5a3 3 0 0 0 2.5-1.34a3 3 0 0 0 2.5 1.34h1.5c1.66 0 3-1.34 3-3s-1.34-3-3-3"/></g><g filter="url(#f2367id1c)"><circle cx="20.467" cy="20.383" r=".726" fill="#d6c8d9"/></g><g filter="url(#f2367id1d)"><path fill="#f86121" d="M19.74 17.096c-.41 0-.75-.34-.75-.75v-1.5c0-.41.34-.75.75-.75s.75.34.75.75v1.5c0 .42-.34.75-.75.75"/></g><g filter="url(#f2367id1e)"><path fill="#f86121" d="M11.74 17.096c-.41 0-.75-.34-.75-.75v-1.5c0-.41.34-.75.75-.75s.75.34.75.75v1.5c0 .42-.34.75-.75.75"/></g><path fill="url(#f2367id4)" d="M19.99 16.892c-.41 0-.75-.34-.75-.75v-1.5c0-.41.34-.75.75-.75s.75.34.75.75v1.5c0 .42-.34.75-.75.75"/><path fill="url(#f2367id5)" d="M19.99 16.892c-.41 0-.75-.34-.75-.75v-1.5c0-.41.34-.75.75-.75s.75.34.75.75v1.5c0 .42-.34.75-.75.75"/><path fill="url(#f2367id6)" d="m13.87 19.812l1.38 1.38c.41.41 1.08.41 1.5 0l1.38-1.38c.67-.67.19-1.81-.75-1.81h-2.75c-.96 0-1.43 1.14-.76 1.81"/><path fill="url(#f2367id7)" d="m13.87 19.812l1.38 1.38c.41.41 1.08.41 1.5 0l1.38-1.38c.67-.67.19-1.81-.75-1.81h-2.75c-.96 0-1.43 1.14-.76 1.81"/><path fill="url(#f2367id8)" d="m13.87 19.812l1.38 1.38c.41.41 1.08.41 1.5 0l1.38-1.38c.67-.67.19-1.81-.75-1.81h-2.75c-.96 0-1.43 1.14-.76 1.81"/><path fill="url(#f2367id1a)" d="m13.87 19.812l1.38 1.38c.41.41 1.08.41 1.5 0l1.38-1.38c.67-.67.19-1.81-.75-1.81h-2.75c-.96 0-1.43 1.14-.76 1.81"/><path fill="url(#f2367id9)" d="M29.62 24.132c.24-.56.37-1.17.37-1.82v-3.85c0-.85-.12-1.69-.34-2.5l-4.36 2.92c-.56.37-.3 1.25.38 1.25h3.75l-4.13 2.75c-.56.37-.3 1.25.38 1.25z"/><path fill="url(#f2367ida)" d="m6.69 22.892l-4.13-2.75h3.75c.67 0 .94-.87.38-1.25l-4.35-2.93c-.23.8-.35 1.65-.35 2.5v3.85c0 .65.13 1.26.37 1.82h3.95c.67 0 .94-.87.38-1.24"/><path fill="url(#f2367idb)" d="M13.14 7.502h5.7c.38 0 .54.47.25.71l-2.7 2.16c-.23.19-.56.19-.8 0l-2.7-2.16c-.29-.24-.13-.71.25-.71"/><path fill="url(#f2367idc)" d="M17.88 4.276a9.77 9.77 0 0 0-1.89-.18c-.65 0-1.28.06-1.89.18l1.17 1.52c.39.41 1.04.41 1.42 0z"/><path fill="url(#f2367idd)" d="m11.53 19.572l-3.46-2a.493.493 0 0 0-.68.18c-.14.24-.06.54.18.68l3.46 2c.24.14.54.06.68-.18s.06-.54-.18-.68"/><path fill="url(#f2367ide)" d="m11.53 19.572l-3.46-2a.493.493 0 0 0-.68.18c-.14.24-.06.54.18.68l3.46 2c.24.14.54.06.68-.18s.06-.54-.18-.68"/><path fill="url(#f2367idf)" d="m11.53 19.572l-3.46-2a.493.493 0 0 0-.68.18c-.14.24-.06.54.18.68l3.46 2c.24.14.54.06.68-.18s.06-.54-.18-.68"/><path fill="url(#f2367idg)" d="m7.56 23.572l3.46-2c.24-.14.54-.06.68.18s.06.54-.18.68l-3.46 2c-.24.14-.54.06-.68-.18a.502.502 0 0 1 .18-.68"/><path fill="url(#f2367idh)" d="m7.56 23.572l3.46-2c.24-.14.54-.06.68.18s.06.54-.18.68l-3.46 2c-.24.14-.54.06-.68-.18a.502.502 0 0 1 .18-.68"/><path fill="url(#f2367idi)" d="m20.45 19.572l3.46-2c.24-.14.54-.06.68.18s.06.54-.18.68l-3.46 2c-.24.14-.54.06-.68-.18a.493.493 0 0 1 .18-.68"/><path fill="url(#f2367idj)" d="m20.45 19.572l3.46-2c.24-.14.54-.06.68.18s.06.54-.18.68l-3.46 2c-.24.14-.54.06-.68-.18a.493.493 0 0 1 .18-.68"/><path fill="url(#f2367idk)" d="m20.45 19.572l3.46-2c.24-.14.54-.06.68.18s.06.54-.18.68l-3.46 2c-.24.14-.54.06-.68-.18a.493.493 0 0 1 .18-.68"/><path fill="url(#f2367idl)" d="m24.42 23.572l-3.46-2a.493.493 0 0 0-.68.18c-.14.24-.06.54.18.68l3.46 2c.24.14.54.06.68-.18s.05-.54-.18-.68"/><path fill="url(#f2367idm)" d="m24.42 23.572l-3.46-2a.493.493 0 0 0-.68.18c-.14.24-.06.54.18.68l3.46 2c.24.14.54.06.68-.18s.05-.54-.18-.68"/><path fill="url(#f2367idn)" d="m24.42 23.572l-3.46-2a.493.493 0 0 0-.68.18c-.14.24-.06.54.18.68l3.46 2c.24.14.54.06.68-.18s.05-.54-.18-.68"/><path fill="url(#f2367ido)" d="m24.42 23.572l-3.46-2a.493.493 0 0 0-.68.18c-.14.24-.06.54.18.68l3.46 2c.24.14.54.06.68-.18s.05-.54-.18-.68"/><path fill="url(#f2367idp)" d="M11.99 16.892c-.41 0-.75-.34-.75-.75v-1.5c0-.41.34-.75.75-.75s.75.34.75.75v1.5c0 .42-.34.75-.75.75"/><path fill="url(#f2367idq)" d="M11.99 16.892c-.41 0-.75-.34-.75-.75v-1.5c0-.41.34-.75.75-.75s.75.34.75.75v1.5c0 .42-.34.75-.75.75"/><path fill="url(#f2367idr)" d="M11.99 16.892c-.41 0-.75-.34-.75-.75v-1.5c0-.41.34-.75.75-.75s.75.34.75.75v1.5c0 .42-.34.75-.75.75"/><g filter="url(#f2367id1f)"><path stroke="url(#f2367ids)" stroke-linecap="round" stroke-width="0.2" d="m20.897 20.006l3.313-1.937"/></g><g filter="url(#f2367id1g)"><path stroke="url(#f2367idt)" stroke-linecap="round" stroke-width="0.2" d="m20.757 21.788l3.437 2.015"/></g><g filter="url(#f2367id1h)"><circle cx="11.296" cy="22.03" r=".188" fill="#ccc1d6"/></g><defs><linearGradient id="f2367id0" x1="26.928" x2="24.116" y1="9.256" y2="11.819" gradientUnits="userSpaceOnUse"><stop offset=".136" stop-color="#f97420"/><stop offset=".649" stop-color="#fc7c2b" stop-opacity="0"/></linearGradient><linearGradient id="f2367id1" x1="15.991" x2="15.991" y1="28.069" y2="24.319" gradientUnits="userSpaceOnUse"><stop stop-color="#c8485b"/><stop offset="1" stop-color="#c8485b" stop-opacity="0"/></linearGradient><linearGradient id="f2367id2" x1="1.991" x2="3.96" y1="13.694" y2="15.596" gradientUnits="userSpaceOnUse"><stop stop-color="#bf603d"/><stop offset=".462" stop-color="#bf603d" stop-opacity="0"/></linearGradient><linearGradient id="f2367id3" x1="15.991" x2="15.991" y1="25.787" y2="21.537" gradientUnits="userSpaceOnUse"><stop stop-color="#c7a5e6"/><stop offset="1" stop-color="#c7a5e6" stop-opacity="0"/></linearGradient><linearGradient id="f2367id4" x1="20.654" x2="19.828" y1="15.392" y2="15.392" gradientUnits="userSpaceOnUse"><stop offset=".225" stop-color="#594c4f"/><stop offset="1" stop-color="#392833"/></linearGradient><linearGradient id="f2367id5" x1="20.975" x2="20.975" y1="17.417" y2="15.827" gradientUnits="userSpaceOnUse"><stop stop-color="#552d52"/><stop offset="1" stop-color="#552d52" stop-opacity="0"/></linearGradient><linearGradient id="f2367id6" x1="17.348" x2="14.255" y1="17.712" y2="20.446" gradientUnits="userSpaceOnUse"><stop offset=".191" stop-color="#5f5254"/><stop offset="1" stop-color="#2e2127"/></linearGradient><linearGradient id="f2367id7" x1="16.39" x2="16.39" y1="18.95" y2="17.254" gradientUnits="userSpaceOnUse"><stop offset=".147" stop-color="#34222c" stop-opacity="0"/><stop offset=".873" stop-color="#34222c"/></linearGradient><linearGradient id="f2367id8" x1="17.237" x2="17.237" y1="21.793" y2="19.23" gradientUnits="userSpaceOnUse"><stop stop-color="#552d52"/><stop offset="1" stop-color="#552d52" stop-opacity="0"/></linearGradient><linearGradient id="f2367id9" x1="26.928" x2="25.678" y1="23.288" y2="18.663" gradientUnits="userSpaceOnUse"><stop offset=".006" stop-color="#4e3d5e"/><stop offset="1" stop-color="#695c77"/></linearGradient><linearGradient id="f2367ida" x1="6.993" x2=".116" y1="20.047" y2="20.047" gradientUnits="userSpaceOnUse"><stop offset=".064" stop-color="#443851"/><stop offset="1" stop-color="#5d5863"/></linearGradient><linearGradient id="f2367idb" x1="13.553" x2="17.678" y1="9.975" y2="6.975" gradientUnits="userSpaceOnUse"><stop offset=".006" stop-color="#4e3d5e"/><stop offset="1" stop-color="#5a4969"/></linearGradient><linearGradient id="f2367idc" x1="15.991" x2="15.991" y1="3.725" y2="6.104" gradientUnits="userSpaceOnUse"><stop offset=".006" stop-color="#635c6c"/><stop offset="1" stop-color="#4f3e5e"/><stop offset="1" stop-color="#503f5f"/></linearGradient><linearGradient id="f2367idd" x1="10.632" x2="9.913" y1="18.319" y2="19.553" gradientUnits="userSpaceOnUse"><stop stop-color="#e8dfed"/><stop offset="1" stop-color="#c3b3d2"/></linearGradient><linearGradient id="f2367ide" x1="10.585" x2="10.21" y1="21.506" y2="20.022" gradientUnits="userSpaceOnUse"><stop stop-color="#beadcc"/><stop offset=".783" stop-color="#beadcc" stop-opacity="0"/></linearGradient><linearGradient id="f2367idf" x1="11.553" x2="10.959" y1="18.381" y2="19.881" gradientUnits="userSpaceOnUse"><stop stop-color="#f6ebf9"/><stop offset="1" stop-color="#f6ebf9" stop-opacity="0"/></linearGradient><linearGradient id="f2367idg" x1="6.991" x2="8.755" y1="19.913" y2="23.32" gradientUnits="userSpaceOnUse"><stop stop-color="#e8dfed"/><stop offset="1" stop-color="#c3b3d2"/></linearGradient><linearGradient id="f2367idh" x1="9.835" x2="8.835" y1="23.725" y2="22.225" gradientUnits="userSpaceOnUse"><stop stop-color="#bb99d7"/><stop offset=".783" stop-color="#beadcc" stop-opacity="0"/></linearGradient><linearGradient id="f2367idi" x1="25.678" x2="19.335" y1="17" y2="20.501" gradientUnits="userSpaceOnUse"><stop stop-color="#e8dfed"/><stop offset="1" stop-color="#c3b3d2"/></linearGradient><linearGradient id="f2367idj" x1="18.991" x2="21.741" y1="21.506" y2="19.85" gradientUnits="userSpaceOnUse"><stop stop-color="#beadcc"/><stop offset="1" stop-color="#beadcc" stop-opacity="0"/></linearGradient><linearGradient id="f2367idk" x1="25.21" x2="23.975" y1="17.397" y2="18.194" gradientUnits="userSpaceOnUse"><stop stop-color="#f6ebf9"/><stop offset="1" stop-color="#f6ebf9" stop-opacity="0"/></linearGradient><linearGradient id="f2367idl" x1="23.366" x2="22.439" y1="22.475" y2="24.1" gradientUnits="userSpaceOnUse"><stop stop-color="#e8dfed"/><stop offset="1" stop-color="#c3b3d2"/></linearGradient><linearGradient id="f2367idm" x1="21.538" x2="21.913" y1="23.131" y2="22.459" gradientUnits="userSpaceOnUse"><stop stop-color="#beadcc"/><stop offset=".783" stop-color="#beadcc" stop-opacity="0"/></linearGradient><linearGradient id="f2367idn" x1="19.788" x2="22.037" y1="21.503" y2="22.835" gradientUnits="userSpaceOnUse"><stop stop-color="#beadcc"/><stop offset="1" stop-color="#beadcc" stop-opacity="0"/></linearGradient><linearGradient id="f2367ido" x1="25.366" x2="23.678" y1="22.6" y2="23.001" gradientUnits="userSpaceOnUse"><stop stop-color="#f6ebf9"/><stop offset="1" stop-color="#f6ebf9" stop-opacity="0"/></linearGradient><linearGradient id="f2367idp" x1="12.654" x2="11.828" y1="15.392" y2="15.392" gradientUnits="userSpaceOnUse"><stop offset=".225" stop-color="#594c4f"/><stop offset="1" stop-color="#392833"/></linearGradient><linearGradient id="f2367idq" x1="10.785" x2="11.991" y1="15.392" y2="15.392" gradientUnits="userSpaceOnUse"><stop stop-color="#594c4f"/><stop offset="1" stop-color="#594c4f" stop-opacity="0"/></linearGradient><linearGradient id="f2367idr" x1="12.975" x2="12.975" y1="17.417" y2="15.827" gradientUnits="userSpaceOnUse"><stop stop-color="#552d52"/><stop offset="1" stop-color="#552d52" stop-opacity="0"/></linearGradient><linearGradient id="f2367ids" x1="25.053" x2="21.553" y1="17.803" y2="19.928" gradientUnits="userSpaceOnUse"><stop stop-color="#f6ebf9"/><stop offset=".937" stop-color="#e4d6e8" stop-opacity="0"/></linearGradient><linearGradient id="f2367idt" x1="24.35" x2="21.319" y1="24.006" y2="22.241" gradientUnits="userSpaceOnUse"><stop stop-color="#f6ebf9"/><stop offset=".937" stop-color="#e4d6e8" stop-opacity="0"/></linearGradient><radialGradient id="f2367idu" cx="0" cy="0" r="1" gradientTransform="rotate(135.385 4.405 4.29)scale(6.58508)" gradientUnits="userSpaceOnUse"><stop stop-color="#ff9e56"/><stop offset="1" stop-color="#d65e27"/></radialGradient><radialGradient id="f2367idv" cx="0" cy="0" r="1" gradientTransform="rotate(152.526 12.76 5.901)scale(5.28338)" gradientUnits="userSpaceOnUse"><stop stop-color="#ffa761"/><stop offset="1" stop-color="#fc7520"/></radialGradient><radialGradient id="f2367idw" cx="0" cy="0" r="1" gradientTransform="matrix(-6.31248 -3.84378 3.48182 -5.71805 26.272 8.569)" gradientUnits="userSpaceOnUse"><stop offset=".724" stop-color="#e16f15" stop-opacity="0"/><stop offset="1" stop-color="#ca572a"/></radialGradient><radialGradient id="f2367idx" cx="0" cy="0" r="1" gradientTransform="rotate(49.914 6.142 29.275)scale(4.90147 5.73234)" gradientUnits="userSpaceOnUse"><stop offset=".784" stop-color="#e16f15" stop-opacity="0"/><stop offset="1" stop-color="#ca572a"/></radialGradient><radialGradient id="f2367idy" cx="0" cy="0" r="1" gradientTransform="matrix(2.59374 .76988 -1.46865 4.94795 6.585 6.955)" gradientUnits="userSpaceOnUse"><stop stop-color="#e16f15"/><stop offset="1" stop-color="#ca572a"/></radialGradient><radialGradient id="f2367idz" cx="0" cy="0" r="1" gradientTransform="matrix(2.625 -.58236 .50949 2.29653 5.49 7.537)" gradientUnits="userSpaceOnUse"><stop stop-color="#e08353"/><stop offset=".876" stop-color="#e08353" stop-opacity="0"/></radialGradient><radialGradient id="f2367id10" cx="0" cy="0" r="1" gradientTransform="matrix(4.05249 -1.88119 1.03473 2.22903 22.428 7.631)" gradientUnits="userSpaceOnUse"><stop stop-color="#f88a5d"/><stop offset=".837" stop-color="#ff7612"/></radialGradient><radialGradient id="f2367id11" cx="0" cy="0" r="1" gradientTransform="rotate(-139.341 14.409 -.448)scale(5.34783 4.06175)" gradientUnits="userSpaceOnUse"><stop offset=".694" stop-color="#e16f15" stop-opacity="0"/><stop offset="1" stop-color="#ca572a"/></radialGradient><radialGradient id="f2367id12" cx="0" cy="0" r="1" gradientTransform="matrix(-6.24985 19.34991 -24.61613 -7.9508 22.24 10.594)" gradientUnits="userSpaceOnUse"><stop stop-color="#ffa24d"/><stop offset=".501" stop-color="#fc7c2b"/><stop offset="1" stop-color="#ca4835"/></radialGradient><radialGradient id="f2367id13" cx="0" cy="0" r="1" gradientTransform="matrix(0 -5.625 6.51316 0 15.99 19.912)" gradientUnits="userSpaceOnUse"><stop stop-color="#e75f09"/><stop offset="1" stop-color="#e75f09" stop-opacity="0"/></radialGradient><radialGradient id="f2367id14" cx="0" cy="0" r="1" gradientTransform="matrix(-.375 8.84989 -8.27269 -.35055 15.99 22.25)" gradientUnits="userSpaceOnUse"><stop stop-color="#e8d0ff"/><stop offset=".781" stop-color="#e1d2ee"/><stop offset="1" stop-color="#ab8bca"/></radialGradient><radialGradient id="f2367id15" cx="0" cy="0" r="1" gradientTransform="matrix(0 11.5 -14.5 0 15.99 22.037)" gradientUnits="userSpaceOnUse"><stop offset=".489" stop-color="#c7a5e6" stop-opacity="0"/><stop offset=".865" stop-color="#c7a5e6"/></radialGradient><radialGradient id="f2367id16" cx="0" cy="0" r="1" gradientTransform="matrix(0 6.125 -10.25 0 15.99 20.1)" gradientUnits="userSpaceOnUse"><stop offset=".13" stop-color="#a58eb9"/><stop offset="1" stop-color="#a58eb9" stop-opacity="0"/></radialGradient><radialGradient id="f2367id17" cx="0" cy="0" r="1" gradientTransform="matrix(8.1875 4.8125 -3.77327 6.41946 7.24 21.537)" gradientUnits="userSpaceOnUse"><stop offset=".13" stop-color="#a58eb9"/><stop offset="1" stop-color="#a58eb9" stop-opacity="0"/></radialGradient><radialGradient id="f2367id18" cx="0" cy="0" r="1" gradientTransform="matrix(0 8 -14.4548 0 19.804 18.35)" gradientUnits="userSpaceOnUse"><stop offset=".177" stop-color="#e4d5e8"/><stop offset="1" stop-color="#c7a5e6"/></radialGradient><radialGradient id="f2367id19" cx="0" cy="0" r="1" gradientTransform="matrix(-2 .9375 -.84515 -1.80297 21.428 20.537)" gradientUnits="userSpaceOnUse"><stop stop-color="#f6e9f9"/><stop offset="1" stop-color="#f6e9f9" stop-opacity="0"/></radialGradient><radialGradient id="f2367id1a" cx="0" cy="0" r="1" gradientTransform="rotate(-161.201 11.231 8.688)scale(6.29662 2.83336)" gradientUnits="userSpaceOnUse"><stop offset=".828" stop-color="#5c5458" stop-opacity="0"/><stop offset=".935" stop-color="#5c5458"/></radialGradient><filter id="f2367id1b" width="14" height="6.25" x="8.991" y="17.752" color-interpolation-filters="sRGB" filterUnits="userSpaceOnUse"><feFlood flood-opacity="0" result="BackgroundImageFix"/><feBlend in="SourceGraphic" in2="BackgroundImageFix" result="shape"/><feColorMatrix in="SourceAlpha" result="hardAlpha" values="0 0 0 0 0 0 0 0 0 0 0 0 0 0 0 0 0 0 127 0"/><feOffset dy="-.25"/><feGaussianBlur stdDeviation=".375"/><feComposite in2="hardAlpha" k2="-1" k3="1" operator="arithmetic"/><feColorMatrix values="0 0 0 0 0.652983 0 0 0 0 0.534201 0 0 0 0 0.754167 0 0 0 1 0"/><feBlend in2="shape" result="effect1_innerShadow_28327_2236"/></filter><filter id="f2367id1c" width="2.453" height="2.453" x="19.241" y="19.157" color-interpolation-filters="sRGB" filterUnits="userSpaceOnUse"><feFlood flood-opacity="0" result="BackgroundImageFix"/><feBlend in="SourceGraphic" in2="BackgroundImageFix" result="shape"/><feGaussianBlur result="effect1_foregroundBlur_28327_2236" stdDeviation=".25"/></filter><filter id="f2367id1d" width="3.5" height="5" x="17.991" y="13.096" color-interpolation-filters="sRGB" filterUnits="userSpaceOnUse"><feFlood flood-opacity="0" result="BackgroundImageFix"/><feBlend in="SourceGraphic" in2="BackgroundImageFix" result="shape"/><feGaussianBlur result="effect1_foregroundBlur_28327_2236" stdDeviation=".5"/></filter><filter id="f2367id1e" width="3.5" height="5" x="9.991" y="13.096" color-interpolation-filters="sRGB" filterUnits="userSpaceOnUse"><feFlood flood-opacity="0" result="BackgroundImageFix"/><feBlend in="SourceGraphic" in2="BackgroundImageFix" result="shape"/><feGaussianBlur result="effect1_foregroundBlur_28327_2236" stdDeviation=".5"/></filter><filter id="f2367id1f" width="3.913" height="2.537" x="20.597" y="17.769" color-interpolation-filters="sRGB" filterUnits="userSpaceOnUse"><feFlood flood-opacity="0" result="BackgroundImageFix"/><feBlend in="SourceGraphic" in2="BackgroundImageFix" result="shape"/><feGaussianBlur result="effect1_foregroundBlur_28327_2236" stdDeviation=".1"/></filter><filter id="f2367id1g" width="4.038" height="2.616" x="20.456" y="21.488" color-interpolation-filters="sRGB" filterUnits="userSpaceOnUse"><feFlood flood-opacity="0" result="BackgroundImageFix"/><feBlend in="SourceGraphic" in2="BackgroundImageFix" result="shape"/><feGaussianBlur result="effect1_foregroundBlur_28327_2236" stdDeviation=".1"/></filter><filter id="f2367id1h" width="1.175" height="1.175" x="10.708" y="21.442" color-interpolation-filters="sRGB" filterUnits="userSpaceOnUse"><feFlood flood-opacity="0" result="BackgroundImageFix"/><feBlend in="SourceGraphic" in2="BackgroundImageFix" result="shape"/><feGaussianBlur result="effect1_foregroundBlur_28327_2236" stdDeviation=".2"/></filter></defs></g></svg>