<svg xmlns="http://www.w3.org/2000/svg" viewBox="0 0 32 32"><g fill="none"><g filter="url(#f2487id13)"><path fill="url(#f2487id0)" d="M29.978 17.96c-1.172-2.044-2.405-4.075-3.519-6.145a3.868 3.868 0 0 1-.454-1.82l-.027-7.324c.03-.59-.69-.9-1.09-.47l-7.07 5.4c-.27.21-.61.32-.95.32h-1.75c-.34 0-.68-.11-.95-.32l-7.07-5.4c-.4-.43-1.12-.12-1.09.47l-.026 7.493a3.817 3.817 0 0 1-.432 1.77c-1.08 2.046-2.313 4.022-3.462 6.027c-.25.43.06.96.56.96c.44 0 .75.43.61.85l-.44 1.3c-.14.41.17.84.6.85h.23c.44 0 .74.43.6.85l-.4 1.21c-.15.44.21.89.68.84l8.07-.89h6.85l8.07.89c.47.05.83-.4.68-.84l-.4-1.21c-.14-.41.17-.84.6-.85h.23c.44 0 .74-.43.6-.85l-.42-1.24c-.14-.42.14-.91.58-.9c.52 0 .84-.54.59-.97"/><path fill="url(#f2487id1)" d="M29.978 17.96c-1.172-2.044-2.405-4.075-3.519-6.145a3.868 3.868 0 0 1-.454-1.82l-.027-7.324c.03-.59-.69-.9-1.09-.47l-7.07 5.4c-.27.21-.61.32-.95.32h-1.75c-.34 0-.68-.11-.95-.32l-7.07-5.4c-.4-.43-1.12-.12-1.09.47l-.026 7.493a3.817 3.817 0 0 1-.432 1.77c-1.08 2.046-2.313 4.022-3.462 6.027c-.25.43.06.96.56.96c.44 0 .75.43.61.85l-.44 1.3c-.14.41.17.84.6.85h.23c.44 0 .74.43.6.85l-.4 1.21c-.15.44.21.89.68.84l8.07-.89h6.85l8.07.89c.47.05.83-.4.68-.84l-.4-1.21c-.14-.41.17-.84.6-.85h.23c.44 0 .74-.43.6-.85l-.42-1.24c-.14-.42.14-.91.58-.9c.52 0 .84-.54.59-.97"/><path fill="url(#f2487idk)" d="M29.978 17.96c-1.172-2.044-2.405-4.075-3.519-6.145a3.868 3.868 0 0 1-.454-1.82l-.027-7.324c.03-.59-.69-.9-1.09-.47l-7.07 5.4c-.27.21-.61.32-.95.32h-1.75c-.34 0-.68-.11-.95-.32l-7.07-5.4c-.4-.43-1.12-.12-1.09.47l-.026 7.493a3.817 3.817 0 0 1-.432 1.77c-1.08 2.046-2.313 4.022-3.462 6.027c-.25.43.06.96.56.96c.44 0 .75.43.61.85l-.44 1.3c-.14.41.17.84.6.85h.23c.44 0 .74.43.6.85l-.4 1.21c-.15.44.21.89.68.84l8.07-.89h6.85l8.07.89c.47.05.83-.4.68-.84l-.4-1.21c-.14-.41.17-.84.6-.85h.23c.44 0 .74-.43.6-.85l-.42-1.24c-.14-.42.14-.91.58-.9c.52 0 .84-.54.59-.97"/><path fill="url(#f2487idl)" d="M29.978 17.96c-1.172-2.044-2.405-4.075-3.519-6.145a3.868 3.868 0 0 1-.454-1.82l-.027-7.324c.03-.59-.69-.9-1.09-.47l-7.07 5.4c-.27.21-.61.32-.95.32h-1.75c-.34 0-.68-.11-.95-.32l-7.07-5.4c-.4-.43-1.12-.12-1.09.47l-.026 7.493a3.817 3.817 0 0 1-.432 1.77c-1.08 2.046-2.313 4.022-3.462 6.027c-.25.43.06.96.56.96c.44 0 .75.43.61.85l-.44 1.3c-.14.41.17.84.6.85h.23c.44 0 .74.43.6.85l-.4 1.21c-.15.44.21.89.68.84l8.07-.89h6.85l8.07.89c.47.05.83-.4.68-.84l-.4-1.21c-.14-.41.17-.84.6-.85h.23c.44 0 .74-.43.6-.85l-.42-1.24c-.14-.42.14-.91.58-.9c.52 0 .84-.54.59-.97"/></g><path fill="url(#f2487id2)" fill-rule="evenodd" d="m2.872 20.913l4.206-3.125l-4.39 1.134a.644.644 0 0 1 .57.849z" clip-rule="evenodd"/><path fill="url(#f2487id3)" fill-opacity="0.5" d="m29.18 20.913l-7.055-4.391l7.238 2.4c-.419.024-.672.47-.57.849z"/><g filter="url(#f2487id14)"><path fill="url(#f2487idm)" d="m19.43 8.647l5.129 2.157a2 2 0 0 1 .965.858l3.663 6.47H2.814l3.59-6.442a2 2 0 0 1 1.008-.884l5.51-2.195a5 5 0 0 1 1.85-.355h2.72a5 5 0 0 1 1.939.391"/></g><path fill="#d3d3d3" d="M7.568 10.17c-.28.1-.58-.11-.57-.4l.01-4.88c-.02-.37.44-.57.69-.29l4.28 3.27c.27.21.2.63-.11.74z"/><path fill="url(#f2487idn)" d="M7.568 10.17c-.28.1-.58-.11-.57-.4l.01-4.88c-.02-.37.44-.57.69-.29l4.28 3.27c.27.21.2.63-.11.74z"/><path fill="url(#f2487ido)" d="M7.568 10.17c-.28.1-.58-.11-.57-.4l.01-4.88c-.02-.37.44-.57.69-.29l4.28 3.27c.27.21.2.63-.11.74z"/><path fill="url(#f2487id4)" d="M7.568 10.17c-.28.1-.58-.11-.57-.4l.01-4.88c-.02-.37.44-.57.69-.29l4.28 3.27c.27.21.2.63-.11.74z"/><path fill="#d3d3d3" d="M24.438 10.17c.28.1.57-.11.57-.4l-.02-4.87c.02-.37-.44-.57-.69-.3l-4.28 3.27c-.27.21-.2.63.11.74z"/><path fill="url(#f2487idp)" d="M24.438 10.17c.28.1.57-.11.57-.4l-.02-4.87c.02-.37-.44-.57-.69-.3l-4.28 3.27c-.27.21-.2.63.11.74z"/><path fill="url(#f2487idq)" d="M24.438 10.17c.28.1.57-.11.57-.4l-.02-4.87c.02-.37-.44-.57-.69-.3l-4.28 3.27c-.27.21-.2.63.11.74z"/><path fill="url(#f2487id5)" d="M24.438 10.17c.28.1.57-.11.57-.4l-.02-4.87c.02-.37-.44-.57-.69-.3l-4.28 3.27c-.27.21-.2.63.11.74z"/><path fill="url(#f2487idr)" d="M14.098 29.92h3.89c1.15 0 2.17-.72 2.56-1.8l.68-3.18c.1-.46.53-.76.99-.71c1.52.19 4.384.48 5.259.589c.984.07.741-.858.741-.858l-.35-1.05c-.05-.15-.18-.97.78-.96c1.024.011.524-1.043.524-1.043l-4.734-1.997s-2.58-1.26-3.85.02l-2.92 2.94c-.06.07-.14.12-.22.17a3.058 3.058 0 0 1-1.405.37a3.058 3.058 0 0 1-1.405-.37c-.08-.05-.16-.1-.22-.17l-2.92-2.94c-1.27-1.28-3.85-.02-3.85-.02l-4.773 1.997s-.517 1.032.563 1.012c.96-.01.815.835.765.985l-.363 1.078s-.271.905.715.836c.703-.082 3.793-.398 5.313-.588c.46-.05.89.25.99.71l.68 3.18a2.72 2.72 0 0 0 2.56 1.8"/><path fill="url(#f2487id6)" d="M14.098 29.92h3.89c1.15 0 2.17-.72 2.56-1.8l.68-3.18c.1-.46.53-.76.99-.71c1.52.19 4.384.48 5.259.589c.984.07.741-.858.741-.858l-.35-1.05c-.05-.15-.18-.97.78-.96c1.024.011.524-1.043.524-1.043l-4.734-1.997s-2.58-1.26-3.85.02l-2.92 2.94c-.06.07-.14.12-.22.17a3.058 3.058 0 0 1-1.405.37a3.058 3.058 0 0 1-1.405-.37c-.08-.05-.16-.1-.22-.17l-2.92-2.94c-1.27-1.28-3.85-.02-3.85-.02l-4.773 1.997s-.517 1.032.563 1.012c.96-.01.815.835.765.985l-.363 1.078s-.271.905.715.836c.703-.082 3.793-.398 5.313-.588c.46-.05.89.25.99.71l.68 3.18a2.72 2.72 0 0 0 2.56 1.8"/><path fill="url(#f2487id7)" d="M14.098 29.92h3.89c1.15 0 2.17-.72 2.56-1.8l.68-3.18c.1-.46.53-.76.99-.71c1.52.19 4.384.48 5.259.589c.984.07.741-.858.741-.858l-.35-1.05c-.05-.15-.18-.97.78-.96c1.024.011.524-1.043.524-1.043l-4.734-1.997s-2.58-1.26-3.85.02l-2.92 2.94c-.06.07-.14.12-.22.17a3.058 3.058 0 0 1-1.405.37a3.058 3.058 0 0 1-1.405-.37c-.08-.05-.16-.1-.22-.17l-2.92-2.94c-1.27-1.28-3.85-.02-3.85-.02l-4.773 1.997s-.517 1.032.563 1.012c.96-.01.815.835.765.985l-.363 1.078s-.271.905.715.836c.703-.082 3.793-.398 5.313-.588c.46-.05.89.25.99.71l.68 3.18a2.72 2.72 0 0 0 2.56 1.8"/><path fill="url(#f2487ids)" d="M14.098 29.92h3.89c1.15 0 2.17-.72 2.56-1.8l.68-3.18c.1-.46.53-.76.99-.71c1.52.19 4.384.48 5.259.589c.984.07.741-.858.741-.858l-.35-1.05c-.05-.15-.18-.97.78-.96c1.024.011.524-1.043.524-1.043l-4.734-1.997s-2.58-1.26-3.85.02l-2.92 2.94c-.06.07-.14.12-.22.17a3.058 3.058 0 0 1-1.405.37a3.058 3.058 0 0 1-1.405-.37c-.08-.05-.16-.1-.22-.17l-2.92-2.94c-1.27-1.28-3.85-.02-3.85-.02l-4.773 1.997s-.517 1.032.563 1.012c.96-.01.815.835.765.985l-.363 1.078s-.271.905.715.836c.703-.082 3.793-.398 5.313-.588c.46-.05.89.25.99.71l.68 3.18a2.72 2.72 0 0 0 2.56 1.8"/><path fill="url(#f2487id8)" d="M14.098 29.92h3.89c1.15 0 2.17-.72 2.56-1.8l.68-3.18c.1-.46.53-.76.99-.71c1.52.19 4.384.48 5.259.589c.984.07.741-.858.741-.858l-.35-1.05c-.05-.15-.18-.97.78-.96c1.024.011.524-1.043.524-1.043l-4.734-1.997s-2.58-1.26-3.85.02l-2.92 2.94c-.06.07-.14.12-.22.17a3.058 3.058 0 0 1-1.405.37a3.058 3.058 0 0 1-1.405-.37c-.08-.05-.16-.1-.22-.17l-2.92-2.94c-1.27-1.28-3.85-.02-3.85-.02l-4.773 1.997s-.517 1.032.563 1.012c.96-.01.815.835.765.985l-.363 1.078s-.271.905.715.836c.703-.082 3.793-.398 5.313-.588c.46-.05.89.25.99.71l.68 3.18a2.72 2.72 0 0 0 2.56 1.8"/><path fill="url(#f2487idt)" d="M14.098 29.92h3.89c1.15 0 2.17-.72 2.56-1.8l.68-3.18c.1-.46.53-.76.99-.71c1.52.19 4.384.48 5.259.589c.984.07.741-.858.741-.858l-.35-1.05c-.05-.15-.18-.97.78-.96c1.024.011.524-1.043.524-1.043l-4.734-1.997s-2.58-1.26-3.85.02l-2.92 2.94c-.06.07-.14.12-.22.17a3.058 3.058 0 0 1-1.405.37a3.058 3.058 0 0 1-1.405-.37c-.08-.05-.16-.1-.22-.17l-2.92-2.94c-1.27-1.28-3.85-.02-3.85-.02l-4.773 1.997s-.517 1.032.563 1.012c.96-.01.815.835.765.985l-.363 1.078s-.271.905.715.836c.703-.082 3.793-.398 5.313-.588c.46-.05.89.25.99.71l.68 3.18a2.72 2.72 0 0 0 2.56 1.8"/><path fill="url(#f2487id9)" fill-opacity="0.75" d="m3.815 24.105l3.779-3.333l-4.369 1.137c.063.009.133.013.213.011c.96-.01.815.835.765.985l-.363 1.078s-.015.048-.025.122"/><path fill="url(#f2487ida)" fill-opacity="0.75" d="m28.25 24.105l-4.531-4.74l5.199 2.56a2.217 2.217 0 0 1-.277.019c-.96-.01-.83.81-.78.96l.364 1.079s.015.048.025.122"/><path fill="url(#f2487idb)" d="m11.62 28.323l2.661-12.442l-10.433 8.554c.062.19.244.366.7.366c.64 0 3.8-.38 5.32-.57c.46-.05.89.25.99.71l.68 3.18c.025.068.053.136.082.202"/><path fill="url(#f2487idc)" d="m11.62 28.323l2.661-12.442l-10.433 8.554c.062.19.244.366.7.366c.64 0 3.8-.38 5.32-.57c.46-.05.89.25.99.71l.68 3.18c.025.068.053.136.082.202"/><path fill="url(#f2487idd)" d="M20.465 28.323L17.804 15.88l10.395 8.574c-.062.19-.287.41-.719.36c-.738-.086-3.743-.394-5.263-.584a.91.91 0 0 0-.99.71l-.68 3.18a2.794 2.794 0 0 1-.082.202"/><path fill="url(#f2487ide)" d="M20.465 28.323L17.804 15.88l10.395 8.574c-.062.19-.287.41-.719.36c-.738-.086-3.743-.394-5.263-.584a.91.91 0 0 0-.99.71l-.68 3.18a2.794 2.794 0 0 1-.082.202"/><path stroke="url(#f2487idf)" stroke-linecap="round" d="M16.025 24.82c0 1.45-1.17 2.62-2.62 2.62"/><path stroke="url(#f2487idg)" stroke-linecap="round" d="M16.025 24.82c0 1.45-1.17 2.62-2.62 2.62"/><path stroke="url(#f2487idu)" stroke-linecap="round" d="M16.025 24.82c0 1.45-1.17 2.62-2.62 2.62"/><path stroke="url(#f2487idh)" stroke-linecap="round" d="M16.048 24.82c0 1.45 1.17 2.62 2.62 2.62"/><path stroke="url(#f2487idi)" stroke-linecap="round" d="M16.048 24.82c0 1.45 1.17 2.62 2.62 2.62"/><g filter="url(#f2487id15)"><rect width="1.406" height="2.862" x="11.058" y="14.287" fill="#6b676e" rx=".703"/></g><g filter="url(#f2487id16)"><rect width="1.406" height="2.862" x="19.112" y="14.287" fill="#6b676e" rx=".703"/></g><rect width="1.477" height="3.004" x="11.324" y="13.991" fill="url(#f2487idv)" rx=".738"/><rect width="1.477" height="3.004" x="11.324" y="13.991" fill="url(#f2487idw)" rx=".738"/><rect width="1.477" height="3.004" x="19.296" y="13.991" fill="url(#f2487idx)" rx=".738"/><rect width="1.477" height="3.004" x="19.296" y="13.991" fill="url(#f2487idy)" rx=".738"/><path fill="url(#f2487idz)" d="M17.325 20.163H14.63c-.777 0-1.355.736-1.019 1.437a6.115 6.115 0 0 0 1.4 1.895c.584.53 1.475.48 2.037-.072a6.95 6.95 0 0 0 1.297-1.747c.377-.718-.208-1.513-1.019-1.513"/><path fill="url(#f2487idj)" d="M17.325 20.163H14.63c-.777 0-1.355.736-1.019 1.437a6.115 6.115 0 0 0 1.4 1.895c.584.53 1.475.48 2.037-.072a6.95 6.95 0 0 0 1.297-1.747c.377-.718-.208-1.513-1.019-1.513"/><path fill="url(#f2487id10)" d="M17.325 20.163H14.63c-.777 0-1.355.736-1.019 1.437a6.115 6.115 0 0 0 1.4 1.895c.584.53 1.475.48 2.037-.072a6.95 6.95 0 0 0 1.297-1.747c.377-.718-.208-1.513-1.019-1.513"/><path fill="url(#f2487id11)" d="M17.325 20.163H14.63c-.777 0-1.355.736-1.019 1.437a6.115 6.115 0 0 0 1.4 1.895c.584.53 1.475.48 2.037-.072a6.95 6.95 0 0 0 1.297-1.747c.377-.718-.208-1.513-1.019-1.513"/><g filter="url(#f2487id17)"><path stroke="#ccc9cc" stroke-linecap="round" stroke-width="0.5" d="m7.094 3.381l6.312 4.875"/></g><g filter="url(#f2487id18)"><path stroke="#ccc9cc" stroke-linecap="round" stroke-width="0.5" d="M25.063 3.537v6.813"/></g><g filter="url(#f2487id19)"><path fill="url(#f2487id12)" fill-opacity="0.5" d="m21.625 10.225l5 13.656l.906-2.656h1.282l-.875-2.625l1.312-.625l-3.875-6.25z"/></g><g filter="url(#f2487id1a)"><circle cx="12.282" cy="14.627" r=".27" fill="#635859"/></g><g filter="url(#f2487id1b)"><circle cx="20.304" cy="14.627" r=".27" fill="#635859"/></g><g filter="url(#f2487id1c)"><ellipse cx="17.481" cy="21.319" fill="#6a6566" rx=".502" ry=".614" transform="rotate(30.37 17.481 21.319)"/></g><defs><radialGradient id="f2487id0" cx="0" cy="0" r="1" gradientTransform="rotate(119.632 7.395 12.021)scale(15.6749 29.1892)" gradientUnits="userSpaceOnUse"><stop stop-color="#b4b3b5"/><stop offset="1" stop-color="#848484"/></radialGradient><radialGradient id="f2487id1" cx="0" cy="0" r="1" gradientTransform="matrix(5.8125 3.375 -3.94223 6.78939 1.5 12.412)" gradientUnits="userSpaceOnUse"><stop stop-color="#767575"/><stop offset="1" stop-color="#767575" stop-opacity="0"/></radialGradient><radialGradient id="f2487id2" cx="0" cy="0" r="1" gradientTransform="rotate(-34.848 33.716 7.355)scale(4.07441 1.13657)" gradientUnits="userSpaceOnUse"><stop stop-color="#634185"/><stop offset=".784" stop-color="#634185" stop-opacity="0"/></radialGradient><radialGradient id="f2487id3" cx="0" cy="0" r="1" gradientTransform="matrix(-5.45312 -2.87498 .5272 -.99997 30.969 20.913)" gradientUnits="userSpaceOnUse"><stop stop-color="#351f4b"/><stop offset=".909" stop-color="#634185" stop-opacity="0"/></radialGradient><radialGradient id="f2487id4" cx="0" cy="0" r="1" gradientTransform="rotate(-44.233 16.252 -3.427)scale(2.57588 1.45826)" gradientUnits="userSpaceOnUse"><stop stop-color="#fff"/><stop offset="1" stop-color="#dcdbdd" stop-opacity="0"/></radialGradient><radialGradient id="f2487id5" cx="0" cy="0" r="1" gradientTransform="matrix(2.15625 -1 .56607 1.2206 19.594 8.725)" gradientUnits="userSpaceOnUse"><stop stop-color="#fff"/><stop offset="1" stop-color="#dcdbdd" stop-opacity="0"/></radialGradient><radialGradient id="f2487id6" cx="0" cy="0" r="1" gradientTransform="matrix(8.875 -8.44564 9.16934 9.63548 6.75 29.92)" gradientUnits="userSpaceOnUse"><stop stop-color="#9890a0"/><stop offset="1" stop-color="#9890a0" stop-opacity="0"/></radialGradient><radialGradient id="f2487id7" cx="0" cy="0" r="1" gradientTransform="matrix(-4.20043 -6.4302 3.84816 -2.51376 21.926 28.087)" gradientUnits="userSpaceOnUse"><stop stop-color="#9890a0"/><stop offset=".644" stop-color="#9890a0" stop-opacity="0"/></radialGradient><radialGradient id="f2487id8" cx="0" cy="0" r="1" gradientTransform="matrix(0 -5 6.33167 0 16.043 30.85)" gradientUnits="userSpaceOnUse"><stop stop-color="#9874bc"/><stop offset="1" stop-color="#8a74a0" stop-opacity="0"/></radialGradient><radialGradient id="f2487id9" cx="0" cy="0" r="1" gradientTransform="matrix(3.84375 -2.1875 .62071 1.09068 2.344 23.569)" gradientUnits="userSpaceOnUse"><stop stop-color="#634185"/><stop offset=".832" stop-color="#634185" stop-opacity="0"/></radialGradient><radialGradient id="f2487ida" cx="0" cy="0" r="1" gradientTransform="rotate(-147.433 18.303 7.443)scale(4.9346 1.40021)" gradientUnits="userSpaceOnUse"><stop stop-color="#634185"/><stop offset=".832" stop-color="#634185" stop-opacity="0"/></radialGradient><radialGradient id="f2487idb" cx="0" cy="0" r="1" gradientTransform="rotate(-50.519 32.873 7.575)scale(9.19079 3.84482)" gradientUnits="userSpaceOnUse"><stop stop-color="#855cae"/><stop offset=".953" stop-color="#855cae" stop-opacity="0"/></radialGradient><radialGradient id="f2487idc" cx="0" cy="0" r="1" gradientTransform="matrix(5.12496 -8.15628 4.25827 2.67566 6.47 29.07)" gradientUnits="userSpaceOnUse"><stop stop-color="#634185"/><stop offset=".784" stop-color="#634185" stop-opacity="0"/></radialGradient><radialGradient id="f2487idd" cx="0" cy="0" r="1" gradientTransform="matrix(-7.6875 -7.87493 2.7831 -2.71686 26.656 28.538)" gradientUnits="userSpaceOnUse"><stop stop-color="#855cae"/><stop offset=".953" stop-color="#855cae" stop-opacity="0"/></radialGradient><radialGradient id="f2487ide" cx="0" cy="0" r="1" gradientTransform="rotate(-125.91 20.396 7.812)scale(11.1891 4.60044)" gradientUnits="userSpaceOnUse"><stop stop-color="#634185"/><stop offset=".815" stop-color="#634185" stop-opacity="0"/></radialGradient><radialGradient id="f2487idf" cx="0" cy="0" r="1" gradientTransform="matrix(1.73438 2.42188 -3.03987 2.17694 13.797 25.381)" gradientUnits="userSpaceOnUse"><stop stop-color="#261317"/><stop offset=".589" stop-color="#4e4647"/><stop offset=".747" stop-color="#2f172a"/></radialGradient><radialGradient id="f2487idg" cx="0" cy="0" r="1" gradientTransform="matrix(-.60938 -.76562 1.26836 -1.00951 14.61 26.444)" gradientUnits="userSpaceOnUse"><stop stop-color="#261317"/><stop offset="1" stop-color="#261317" stop-opacity="0"/></radialGradient><radialGradient id="f2487idh" cx="0" cy="0" r="1" gradientTransform="rotate(122.471 2.27 17.812)scale(3.05588 4.35358)" gradientUnits="userSpaceOnUse"><stop stop-color="#261317"/><stop offset=".589" stop-color="#4e4647"/><stop offset=".747" stop-color="#2f172a"/></radialGradient><radialGradient id="f2487idi" cx="0" cy="0" r="1" gradientTransform="matrix(-.92188 .89062 -1.47543 -1.5272 17.734 25.678)" gradientUnits="userSpaceOnUse"><stop stop-color="#261317"/><stop offset="1" stop-color="#261317" stop-opacity="0"/></radialGradient><radialGradient id="f2487idj" cx="0" cy="0" r="1" gradientTransform="matrix(-1.7745 1.90138 -3.49291 -3.25981 16.454 20.948)" gradientUnits="userSpaceOnUse"><stop offset=".463" stop-color="#34222c" stop-opacity="0"/><stop offset=".956" stop-color="#34222c"/></radialGradient><linearGradient id="f2487idk" x1=".687" x2="12.438" y1="20.475" y2="15.912" gradientUnits="userSpaceOnUse"><stop stop-color="#747474"/><stop offset=".492" stop-color="#747474" stop-opacity="0"/></linearGradient><linearGradient id="f2487idl" x1="30.5" x2="24.5" y1="27.787" y2="20.787" gradientUnits="userSpaceOnUse"><stop stop-color="#747474"/><stop offset="1" stop-color="#747474" stop-opacity="0"/></linearGradient><linearGradient id="f2487idm" x1="15.969" x2="15.969" y1="5.412" y2="13.725" gradientUnits="userSpaceOnUse"><stop stop-color="#747474"/><stop offset="1" stop-color="#747474" stop-opacity="0"/></linearGradient><linearGradient id="f2487idn" x1="11.375" x2="9.25" y1="6.35" y2="9.1" gradientUnits="userSpaceOnUse"><stop stop-color="#bab8bd"/><stop offset="1" stop-color="#bab8bd" stop-opacity="0"/></linearGradient><linearGradient id="f2487ido" x1="6.998" x2="8.125" y1="9.459" y2="9.412" gradientUnits="userSpaceOnUse"><stop stop-color="#dcdbdd"/><stop offset="1" stop-color="#dcdbdd" stop-opacity="0"/></linearGradient><linearGradient id="f2487idp" x1="26.063" x2="22.876" y1="8.287" y2="8.484" gradientUnits="userSpaceOnUse"><stop stop-color="#bab8bd"/><stop offset="1" stop-color="#bab8bd" stop-opacity="0"/></linearGradient><linearGradient id="f2487idq" x1="20.344" x2="21.155" y1="8.975" y2="7.335" gradientUnits="userSpaceOnUse"><stop offset=".275" stop-color="#dcdbdd"/><stop offset="1" stop-color="#dcdbdd" stop-opacity="0"/></linearGradient><linearGradient id="f2487idr" x1="19.75" x2="11.625" y1="19.35" y2="29.921" gradientUnits="userSpaceOnUse"><stop stop-color="#d7d3db"/><stop offset="1" stop-color="#b7b1bc"/></linearGradient><linearGradient id="f2487ids" x1="2.063" x2="12.313" y1="31.537" y2="23.475" gradientUnits="userSpaceOnUse"><stop stop-color="#9890a0"/><stop offset="1" stop-color="#9890a0" stop-opacity="0"/></linearGradient><linearGradient id="f2487idt" x1="16.043" x2="16.043" y1="31.35" y2="29.412" gradientUnits="userSpaceOnUse"><stop stop-color="#855cae"/><stop offset="1" stop-color="#855cae" stop-opacity="0"/></linearGradient><linearGradient id="f2487idu" x1="15.891" x2="15.188" y1="25.709" y2="26.725" gradientUnits="userSpaceOnUse"><stop stop-color="#2f172a"/><stop offset="1" stop-color="#2f172a" stop-opacity="0"/></linearGradient><linearGradient id="f2487idv" x1="12.714" x2="11.902" y1="15.493" y2="15.493" gradientUnits="userSpaceOnUse"><stop offset=".225" stop-color="#594c4f"/><stop offset="1" stop-color="#392833"/></linearGradient><linearGradient id="f2487idw" x1="13.031" x2="13.031" y1="17.521" y2="15.928" gradientUnits="userSpaceOnUse"><stop stop-color="#552d52"/><stop offset="1" stop-color="#552d52" stop-opacity="0"/></linearGradient><linearGradient id="f2487idx" x1="20.687" x2="19.875" y1="15.493" y2="15.493" gradientUnits="userSpaceOnUse"><stop offset=".225" stop-color="#594c4f"/><stop offset="1" stop-color="#392833"/></linearGradient><linearGradient id="f2487idy" x1="21.004" x2="21.004" y1="17.521" y2="15.928" gradientUnits="userSpaceOnUse"><stop stop-color="#552d52"/><stop offset="1" stop-color="#552d52" stop-opacity="0"/></linearGradient><linearGradient id="f2487idz" x1="17.649" x2="14.019" y1="19.823" y2="23.11" gradientUnits="userSpaceOnUse"><stop offset=".191" stop-color="#5f5254"/><stop offset="1" stop-color="#2e2127"/></linearGradient><linearGradient id="f2487id10" x1="16.5" x2="16.5" y1="21.272" y2="19.288" gradientUnits="userSpaceOnUse"><stop offset=".147" stop-color="#34222c" stop-opacity="0"/><stop offset=".873" stop-color="#34222c"/></linearGradient><linearGradient id="f2487id11" x1="17.516" x2="17.516" y1="24.6" y2="21.6" gradientUnits="userSpaceOnUse"><stop stop-color="#552d52"/><stop offset="1" stop-color="#552d52" stop-opacity="0"/></linearGradient><linearGradient id="f2487id12" x1="24.469" x2="26.938" y1="17.506" y2="24.163" gradientUnits="userSpaceOnUse"><stop stop-color="#c2c1c3"/><stop offset=".724" stop-color="#d9d9d9"/></linearGradient><filter id="f2487id13" width="28.565" height="23.074" x="2" y="1.75" color-interpolation-filters="sRGB" filterUnits="userSpaceOnUse"><feFlood flood-opacity="0" result="BackgroundImageFix"/><feBlend in="SourceGraphic" in2="BackgroundImageFix" result="shape"/><feColorMatrix in="SourceAlpha" result="hardAlpha" values="0 0 0 0 0 0 0 0 0 0 0 0 0 0 0 0 0 0 127 0"/><feOffset dx=".5" dy="-.25"/><feGaussianBlur stdDeviation=".375"/><feComposite in2="hardAlpha" k2="-1" k3="1" operator="arithmetic"/><feColorMatrix values="0 0 0 0 0.4625 0 0 0 0 0.458646 0 0 0 0 0.458646 0 0 0 1 0"/><feBlend in2="shape" result="effect1_innerShadow_28327_1901"/></filter><filter id="f2487id14" width="28.375" height="11.875" x="1.813" y="7.256" color-interpolation-filters="sRGB" filterUnits="userSpaceOnUse"><feFlood flood-opacity="0" result="BackgroundImageFix"/><feBlend in="SourceGraphic" in2="BackgroundImageFix" result="shape"/><feGaussianBlur result="effect1_foregroundBlur_28327_1901" stdDeviation=".5"/></filter><filter id="f2487id15" width="2.906" height="4.362" x="10.308" y="13.537" color-interpolation-filters="sRGB" filterUnits="userSpaceOnUse"><feFlood flood-opacity="0" result="BackgroundImageFix"/><feBlend in="SourceGraphic" in2="BackgroundImageFix" result="shape"/><feGaussianBlur result="effect1_foregroundBlur_28327_1901" stdDeviation=".375"/></filter><filter id="f2487id16" width="2.906" height="4.362" x="18.362" y="13.537" color-interpolation-filters="sRGB" filterUnits="userSpaceOnUse"><feFlood flood-opacity="0" result="BackgroundImageFix"/><feBlend in="SourceGraphic" in2="BackgroundImageFix" result="shape"/><feGaussianBlur result="effect1_foregroundBlur_28327_1901" stdDeviation=".375"/></filter><filter id="f2487id17" width="8.813" height="7.375" x="5.844" y="2.131" color-interpolation-filters="sRGB" filterUnits="userSpaceOnUse"><feFlood flood-opacity="0" result="BackgroundImageFix"/><feBlend in="SourceGraphic" in2="BackgroundImageFix" result="shape"/><feGaussianBlur result="effect1_foregroundBlur_28327_1901" stdDeviation=".5"/></filter><filter id="f2487id18" width="1.9" height="8.713" x="24.113" y="2.587" color-interpolation-filters="sRGB" filterUnits="userSpaceOnUse"><feFlood flood-opacity="0" result="BackgroundImageFix"/><feBlend in="SourceGraphic" in2="BackgroundImageFix" result="shape"/><feGaussianBlur result="effect1_foregroundBlur_28327_1901" stdDeviation=".35"/></filter><filter id="f2487id19" width="11.625" height="17.656" x="19.625" y="8.225" color-interpolation-filters="sRGB" filterUnits="userSpaceOnUse"><feFlood flood-opacity="0" result="BackgroundImageFix"/><feBlend in="SourceGraphic" in2="BackgroundImageFix" result="shape"/><feGaussianBlur result="effect1_foregroundBlur_28327_1901" stdDeviation="1"/></filter><filter id="f2487id1a" width="1.539" height="1.539" x="11.512" y="13.858" color-interpolation-filters="sRGB" filterUnits="userSpaceOnUse"><feFlood flood-opacity="0" result="BackgroundImageFix"/><feBlend in="SourceGraphic" in2="BackgroundImageFix" result="shape"/><feGaussianBlur result="effect1_foregroundBlur_28327_1901" stdDeviation=".25"/></filter><filter id="f2487id1b" width="1.539" height="1.539" x="19.535" y="13.858" color-interpolation-filters="sRGB" filterUnits="userSpaceOnUse"><feFlood flood-opacity="0" result="BackgroundImageFix"/><feBlend in="SourceGraphic" in2="BackgroundImageFix" result="shape"/><feGaussianBlur result="effect1_foregroundBlur_28327_1901" stdDeviation=".25"/></filter><filter id="f2487id1c" width="2.066" height="2.174" x="16.448" y="20.231" color-interpolation-filters="sRGB" filterUnits="userSpaceOnUse"><feFlood flood-opacity="0" result="BackgroundImageFix"/><feBlend in="SourceGraphic" in2="BackgroundImageFix" result="shape"/><feGaussianBlur result="effect1_foregroundBlur_28327_1901" stdDeviation=".25"/></filter></defs></g></svg>